<?xml version="1.0" encoding="utf-8"?>
<!-- Generator: Adobe Illustrator 16.0.0, SVG Export Plug-In . SVG Version: 6.00 Build 0)  -->
<!DOCTYPE svg PUBLIC "-//W3C//DTD SVG 1.1//EN" "http://www.w3.org/Graphics/SVG/1.1/DTD/svg11.dtd">
<svg version="1.1" id="black" xmlns="http://www.w3.org/2000/svg" xmlns:xlink="http://www.w3.org/1999/xlink" x="0px" y="0px"
	 width="2000px" height="1280px" viewBox="0 0 2000 1280" enable-background="new 0 0 2000 1280" xml:space="preserve">
<symbol  id="New_Symbol_10" viewBox="-37.236 -37.491 74.472 74.981">
	<g>
		<g>
			<g>
				<g>
					<polygon fill="#0B0B0B" points="23.098,12.539 23.096,12.536 23.098,12.536 					"/>
					<path fill="#0B0B0B" d="M26.772-4.074c-0.41-0.647-0.494-1.885,0.436-2.595c1.523-1.163,2.877-0.169,3.766-0.749
						C31.25-7.599,31.44-7.44,31.55-7.133c0.25,0.707,0.368,1.438,0.283,2.185c-0.04,0.356-0.115,0.725-0.255,1.054
						c-0.558,1.302-2.247,1.836-3.496,1.126c-0.158-0.091-0.312-0.199-0.455-0.316c-0.151-0.123-0.291-0.266-0.449-0.413
						c0.071-0.083,0.128-0.16,0.195-0.228c0.151-0.155,0.208-0.339,0.162-0.545c-0.144-0.646-0.018-1.276,0.496-1.614
						c0.5-0.328,2.031-0.766,2.951,0.473c0.439-0.816,0.127-1.52,0.064-1.558c-0.007-0.007-0.422,0.413-1.531,0.35
						c-0.614-0.033-1.429,0.128-1.948,0.48c-0.626,0.421-0.748,1.201-0.783,1.957C26.782-4.16,26.777-4.138,26.772-4.074z
						 M29.722-3.99c0-0.454-0.369-0.825-0.826-0.825c-0.455,0-0.826,0.371-0.826,0.825c0,0.457,0.371,0.826,0.826,0.826
						C29.353-3.164,29.722-3.533,29.722-3.99z"/>
				</g>
			</g>
			<g>
				<g>
					<path fill="#0B0B0B" d="M19.839,2.256c0,0.049,0.002,0.097,0.002,0.145c-0.019,0.034-0.044,0.066-0.061,0.101
						C19.829,2.43,19.851,2.342,19.839,2.256z"/>
					<path fill="#0B0B0B" d="M21.587,7.85c-0.017,0-0.034-0.003-0.05-0.003c-0.009-0.02-0.018-0.039-0.027-0.058
						C21.529,7.809,21.562,7.83,21.587,7.85z"/>
				</g>
			</g>
			<g>
				<g>
					<path fill="#0B0B0B" d="M36.517-27.253c0.04,0.263,0.084,0.509,0.132,0.757c0.104,0.551,0.21,1.12,0.249,1.703
						c0.132,2.062-0.514,3.865-1.919,5.365l0.049,0.221c0.067,0.314,0.149,0.706,0.196,1.089c0.119,0.946-0.186,1.796-0.93,2.602
						c-0.022,0.023-0.048,0.051-0.061,0.071c-0.181,0.544-0.572,0.979-1.156,1.271c-0.344,0.174-0.705,0.304-1.081,0.388
						c0.449,0.186,0.9,0.411,1.36,0.687c0.054,0.032,0.077,0.038,0.077,0.038c1.5,0.229,2.682,1.386,2.944,2.876
						c0.006,0.035,0.01,0.067,0.015,0.104c0.007,0.063,0.015,0.134,0.023,0.155c0.592,0.913,0.699,1.946,0.317,3.061
						c-0.125,0.36-0.279,0.722-0.416,1.038c-0.107,0.249-0.212,0.493-0.305,0.736c-0.106,0.277-0.225,0.587-0.25,0.868
						c-0.07,0.783-0.186,1.813-0.47,2.84c-0.593,2.135-1.624,3.807-3.153,5.113c-1.396,1.194-2.886,1.706-4.899,2.007
						c0.274-0.431-0.091-0.624,0.104-1.101c0.079-0.193,0.1-0.375,0.099-0.553c3.444-1.177,6.047-4.312,6.485-8.081
						c0.012-0.108,0.024-0.223,0.033-0.334c0.024-0.311,0.052-0.631,0.152-0.944c0.116-0.365,0.284-0.705,0.446-1.032
						c0.066-0.136,0.134-0.271,0.196-0.409c0.058-0.124,0.116-0.249,0.176-0.372c0.122-0.257,0.261-0.548,0.372-0.835
						c0.1-0.254,0.198-0.817,0.071-1.177c-0.006,0.004-0.652,0.824-1.295,0.888c-0.625,0.063-0.772-0.378-0.772-0.378
						s1.257-0.434,1.611-1.399c-0.042-0.507-0.225-0.935-0.545-1.259c-0.398-0.403-0.809-0.535-1.237-0.6
						c-0.482-0.073-0.828,0.149-0.828,0.149s-0.267-1.464-3.296-1.468l-0.185,0.001c-0.891,0-1.75-0.248-2.703-0.78
						c-1.255-1.039-4.071-0.935-4.071-0.935c-0.792,0.133-1.534,0.334-2.252,0.619c-1.323,0.529-2.488,1.28-3.392,2.398
						c-0.487,0.602-0.853,1.268-1.102,1.999c-0.023,0.066-0.051,0.132-0.076,0.197c-0.014-0.713,0.137-1.385,0.442-2.021
						c0.623-1.278,1.649-2.115,2.935-2.664c1.115-0.479,2.284-0.641,3.488-0.581l0.255-0.285c0.123-0.135,0.254-0.178,0.342-0.199
						c0.491-0.117,1.011-0.174,1.587-0.174c0.224,0,1.575,0.311,2.954-0.385c0.124-0.062,0.291-0.138,0.49-0.138
						c0.103,0,0.201,0.019,0.299,0.056l0.152,0.058c0.326,0.123,0.967,0.386,0.967,0.386c3.941,0.867,4.504-2.112,4.504-2.112
						c-0.104,0.046-0.223,0.083-0.355,0.083c-0.155,0-0.301-0.053-0.433-0.149l-0.448-0.341l0.673-0.423
						c0.14-0.087,0.265-0.164,0.386-0.247c0.153-0.105,0.215-0.249,0.207-0.481c-0.019-0.606-0.728-1.227-1.403-1.227
						c-0.077,0-0.151,0.008-0.222,0.022c-0.275,0.062-0.426,0.15-0.516,0.308c-0.078,0.134-0.257,0.274-0.468,0.274l-0.179-0.008
						c-0.215-0.009-0.434-0.018-0.656-0.067l-0.051-0.013c-0.298-0.065-0.575-0.131-0.848-0.131c-0.097,0-0.188,0.009-0.277,0.026
						c-0.128,0.022-0.255,0.054-0.383,0.087l-0.598,0.142l-0.102-0.356c-0.151-0.528-0.396-1.005-0.752-1.456
						c-0.764-0.972-1.788-1.657-3.131-2.099c-0.989-0.324-2.059-0.488-3.176-0.488c-0.59,0-1.211,0.046-1.847,0.136
						c-2.402,0.344-4.08,1.647-4.984,3.877c-0.149,0.369-0.256,0.775-0.359,1.169c-0.058,0.222-0.11,0.43-0.171,0.636
						c-0.317,1.078-0.719,2.035-1.228,2.926c-0.938,1.636-2.101,2.803-3.558,3.569c-1.17,0.615-2.447,0.927-3.799,0.927
						c-0.561,0-1.146-0.053-1.74-0.157c-0.245-0.045-0.494-0.068-0.737-0.16c-1.282-0.49-1.442-0.715-1.442-0.715l0.619-0.037
						c0.104-0.006,0.328-0.035,0.555-0.065c0.251-0.032,0.504-0.064,0.612-0.069c0.433-0.021,0.843-0.04,1.248-0.083
						c1.698-0.172,3.243-0.691,4.591-1.546c1.812-1.147,2.922-2.568,3.392-4.342c0.29-1.091,0.703-2.179,1.228-3.231
						c0.313-0.627,0.711-1.353,1.294-1.978c0.827-0.887,1.885-1.489,3.324-1.895c0.385-0.107,0.764-0.229,1.084-0.33
						c0.038-0.011,0.077-0.032,0.117-0.136c0.18-0.466,0.223-0.918,0.131-1.383c-0.141-0.725-0.49-1.397-1.066-2.062
						c-0.458-0.526-1.051-0.929-1.626-1.316c-0.318-0.214-0.616-0.439-0.891-0.673c-0.341-0.291-0.518-0.682-0.499-1.1
						c0.016-0.346,0.042-0.921,0.628-0.921c0.126,0,0.271,0.029,0.5,0.105c0.097,0.032,0.193,0.071,0.289,0.112l0.507,0.22
						c0.282,0.121,0.565,0.243,0.848,0.362c0.566,0.234,1.12,0.354,1.648,0.354c0.276,0,0.555-0.031,0.825-0.098
						c0.773-0.185,1.48-0.607,1.643-1.219c0,0,0.541-2.345-3.352-2.314c-0.314,0-0.634,0.075-0.974,0.157l-0.183,0.043
						c-0.371,0.087-0.703,0.127-1.017,0.129c-0.295,0-0.567-0.051-0.829-0.1L15.572-35.5c-0.776-0.141-1.609-0.205-2.698-0.205
						c-0.487,0-23.165,0.021-23.165,0.021c-2.045,0-3.985,0.287-5.767,0.753c-7.413,1.938-12.688,6.09-16.131,12.422
						c-1.25,2.303-2.104,4.787-2.544,7.435c0.023-0.037,2.468-3.748,2.468-3.748s-2.707,4.89-2.816,7.805
						c-0.038,1.024,0.061,2.072,0.188,3.117c0.079-0.263,0.162-0.521,0.252-0.774c1.262-3.597,3.176-6.964,5.849-10.3
						c0.064-0.08,0.117-0.174,0.144-0.257c0.412-1.27,0.972-2.477,1.664-3.599c-1.565,0.321-3.799,2.522-3.799,2.522l0.291-0.561
						c1.747-3.367,5.86-5.419,6.665-5.711c2.358-2.095,5.223-3.613,8.509-4.517c0.187-0.051,0.374-0.095,0.562-0.138l1.605-0.384
						l-1.026,0.993c-0.117,0.115-0.244,0.16-0.322,0.188c-2.328,0.831-4.458,2.002-6.33,3.479c-2.446,1.929-4.207,4.287-5.233,7.008
						c-0.124,0.326-0.11,0.496-0.053,0.649c0.056,0.149,0.094,0.301,0.132,0.446c0.026,0.106,0.045,0.182,0.067,0.254
						c0.545,1.778,1.366,3.171,2.515,4.251c1.071,1.01,2.442,1.751,4.194,2.265c1.668,0.49,3.429,0.715,5.131,0.933l0.742,0.096
						c0.963,0.125,1.935,0.275,2.875,0.421l0.49,0.077c-0.637-0.818-1.188-1.696-1.644-2.622c-0.116-0.038-3.573-0.815-3.986-0.903
						c-5.49-1.171-5.861-4.658-5.861-4.658s2.371,3.142,8.071,3.312l0.199,0.002c0.23-0.003,0.458-0.01,0.695-0.021
						c-1.581-8.259,1.483-11.128,1.458-11.033c-0.694,2.64-0.868,5.042-0.532,7.344c0.434,2.986,1.751,5.56,3.911,7.647
						c1.469,1.422,3.319,2.615,5.655,3.653c2.031,0.903,4.17,1.452,6.186,1.938l0.386,0.091C6.045-5.453,7.543-5.092,9-4.664
						c2.257,0.661,4.22,1.751,5.833,3.241c0.246,0.227,0.526,0.483,0.763,0.791c1.142,1.48,2.438,2.604,3.935,3.438
						c0.206-0.944,0.748-1.833,1.632-2.373c-0.929,1.592-1.399,3.215-0.959,4.714c0.419,1.34,1.114,2.013,1.852,3.307
						c0.877,1.691,0.972,4.094,0.985,4.107c0.162,0.166,0.274,0.329,0.44,0.491c0.204,0.203,0.394,0.403,0.594,0.609
						c0.594,0.614,1.029,1.382,1.212,2.299c0.19,0.956-0.245,1.468-0.245,1.468c0.161,0.59,0.376,1.165,0.421,1.756
						c0.083,1.098-0.255,2.111-0.408,2.111c-0.074,0-1.408-1.521-2.142-1.805c-0.174,1.044-0.441,2.103-0.858,3.425
						c-0.313,0.994-0.4,1.812-0.274,2.571c0.095,0.566,0.784,1.357,0.784,1.357l0.32,0.378l-0.44,0.225
						c-0.072,0.043-0.639,0.169-0.829,0.169c-0.554,0-1.009-0.199-1.338-0.581c-0.066,0.453-0.076,0.91-0.033,1.372
						c0.073,0.796,0.391,1.526,0.656,2.075c0.081,0.167,0.183,0.389,0.253,0.625c0.084,0.29,0.043,0.564-0.115,0.776
						c-0.158,0.211-0.409,0.326-0.707,0.326c-0.258-0.004-0.49-0.045-0.691-0.121c-0.904-0.34-1.61-0.918-2.106-1.719
						c-0.163,0.187-0.313,0.395-0.404,0.644c-0.121,0.329-0.276,0.637-0.426,0.92c-0.125,0.237-0.293,0.358-0.498,0.358
						c-0.146,0-0.259-0.063-0.341-0.137c-0.259,0.695-0.686,1.281-1.268,1.745c-0.038,0.03-0.076,0.054-0.131,0.087l-0.787,0.482
						c0,0,0.154-1.013,0.154-1.014c-2.018,1.311-4.247,2.261-6.634,2.828c-0.19,0.045-0.383,0.083-0.575,0.121
						c-0.578,0.113-2.248,0.766-2.546,0.862c-0.069,0.03,0.062-0.479,0.062-0.479c-0.24,0.005-1.613,0.28-1.657,0.28l-0.113-0.41
						c0,0-1.831,0.832-2.185,0.832c0,0-0.374-0.683-0.423-0.685c-1.661-0.104-3.253-0.349-4.727-0.714
						c-2.594-0.645-4.76-1.61-6.618-2.947c-1.626-1.169-2.796-2.473-3.648-3.937c-0.425-0.729-1.063-1.896-1.174-2.646
						c0.463,0.176,1.455,0.197,1.63,0.197c0.828,0,2.077-0.487,2.984-1.147c0.973-0.707,1.663-1.593,2.049-2.629
						c0.553-1.487,0.301-2.87-0.75-4.112c-0.331,1.101-0.771,1.928-1.385,2.601c-0.431,0.475-0.938,0.831-1.505,1.062
						c-0.089,0.037-0.177,0.061-0.27,0.073l-0.148,0.021c0,0,0.721-1.63,0.809-2.312c0.188-1.467-0.007-3.525-1.434-3.924
						c-0.43-0.12-0.841-0.296-1.262-0.442c-0.759-0.263-1.545-0.536-2.317-0.823c-2.167-0.809-4.097-1.715-5.89-2.771
						c0.547,0.838,0.037,1.705-0.11,1.874c-0.062-0.879-2.796-3.817-3.328-4.268c-1.943-1.643-3.406-3.169-4.617-4.782
						c-0.94-1.255-1.766-2.576-2.458-3.938c-0.069,0.724-0.088,1.445-0.059,2.177c0.014,0.331-1.805-2.774-1.504-5.891
						c0.001-0.009,0.001-0.047-0.028-0.143c-0.586-1.842-0.965-3.678-1.124-5.454c-0.583-6.513,1.041-12.54,4.826-17.756
						c4.028-5.553,9.492-9.293,16.24-10.854c1.79-0.415,3.769-0.806,6.619-0.806c0,0,11.187,0,11.895,0l16.237,0.031
						c0,0,1.905,0.001,2.992,0.592c0.926,0.502,1.455,1.005,1.833,1.884c0.585,1.357,0.085,3.093-1.162,4.004
						c-0.741,0.542-1.618,0.812-2.682,0.812c-0.1,0-0.2,0.004-0.303-0.001c-0.106-0.005-0.213-0.012-0.318-0.021
						c0.828,0.844,1.395,1.842,1.688,2.971c0.131,0.506,0.172,1.033,0.126,1.564l-0.003,0.026l0.254,0.014
						c0.567,0.024,1.14,0.052,1.704,0.093c-0.188-0.24-0.332-0.519-0.433-0.831c-0.278-0.878-0.395-1.61-0.365-2.3
						c0.051-1.215,0.513-2.354,1.368-3.381c0.663-0.793,1.475-1.431,2.479-1.939c-0.098-0.423-0.073-0.856,0.076-1.283
						c0.116-0.324,0.33-0.586,0.636-0.757c0.34-0.19,0.709-0.308,1.096-0.308c0.139,0,0.285-0.027,0.442,0.008
						c0.614-1.357,2.109-1.176,2.109-1.176c1.229,0.282,1.654,1.443,1.529,2.385c-0.017,0.112-0.036,0.233-0.062,0.343l0.065,0.024
						c0.325,0.078,0.663,0.164,0.997,0.279c2.271,0.789,3.733,2.341,4.352,4.605C37.395-28.826,37.19-27.953,36.517-27.253z
						 M19.562,8.512C16.086-1.162,7.967-2.469,7.145-2.469c0,0-2.639-0.201-3.821,0.082c0.036-0.17,0.614-0.827,1.932-1.002
						C4.74-3.497,4.215-3.603,3.698-3.676C2.313-3.873,0.681-4.142-0.938-4.633c-0.072-0.021-0.148-0.033-0.22-0.033L-1.2-4.664
						C-2.708-4.561-4.219-4.451-5.728-4.34c-0.917,0.065-1.759,0.098-2.572,0.098c-0.97,0-1.874-0.045-2.763-0.139
						c-1.997-0.211-3.972-0.689-5.871-1.424c-5.462-2.327-8.367-5.437-8.367-5.437s5.587,3.76,8.557,4.518
						c6.477,1.654,10.589,0.284,11.332,0.098c-0.455-0.268-0.891-0.55-1.308-0.856c-0.345-0.254-0.722-0.445-1.154-0.608
						c-0.323-0.121-0.671-0.245-1.026-0.356c-1.496-0.473-3.072-0.747-4.596-1.016c0,0-0.624-0.109-0.904-0.159
						c-1.479-0.267-3.055-0.554-4.605-0.896c-1.536-0.339-2.87-0.837-4.08-1.525c-2.225-1.264-3.542-3.168-3.917-5.663
						c-0.647,1.224-1.116,2.412-1.165,3.644c-0.252,6.396,4.22,8.763,5.528,9.623c1.335,0.876,2.907,1.605,4.946,2.296
						c2.809,0.949,5.729,1.566,8.47,2.094c1.036,0.199,2.075,0.396,3.114,0.592l0.252,0.047c1.223,0.23,2.444,0.461,3.667,0.699
						C-0.05,1.702,1.66,2.248,3.194,3.002c2.427,1.195,4.27,2.473,5.792,4.02c1.223,0.039,2.317,0.151,3.36,0.351
						c2.786,0.528,5.432,1.583,7.872,3.135C20.031,9.803,19.792,9.156,19.562,8.512z M22.232,17.404
						c0.338,0.164,0.725,0.273,1.099,0.383c0,0,0.233,0.067,0.326,0.096c-0.021-0.104-0.042-0.202-0.072-0.296
						c-0.574-1.758-1.575-3.32-2.977-4.648c-0.904-0.854-2.014-1.559-3.597-2.277c-1.332-0.604-2.771-1.104-4.463-1.547
						C13.034,9.255,13.52,9.425,14,9.626c2.487,1.032,4.763,2.6,6.958,4.786c0.03,0.03,0.056,0.064,0.08,0.1l0.673,0.927
						l-1.093-0.312c-0.125-0.037-0.212-0.094-0.281-0.142c-1.856-1.288-3.552-2.324-5.181-3.167
						c-1.021-0.527-2.316-1.111-3.617-1.446c-0.026-0.007-0.156-0.013-0.156-0.021v0.004c0,0.488,0.24,0.967,0.605,1.427
						c0.268,0.338,0.776,0.757,1.148,1.041c1.128,0.858,2.363,1.55,3.404,2.093c-0.381-0.49-0.779-0.879-1.318-1.147
						c0,0,0.626-0.659,1.439-0.366c0.929,0.334,1.36,0.657,1.964,1.161c0.338,0.282,0.673,0.57,1.005,0.86
						c0.391,0.337,0.874,0.757,1.344,1.14C21.313,16.833,21.759,17.176,22.232,17.404z M17.753,27.516
						c0.312,1.185,0.677,2.032,1.171,2.748c0.228,0.325,0.463,0.565,0.725,0.742c-0.012-0.026-0.052-0.122-0.052-0.122
						c-0.721-1.758-1.073-3.62-1.08-5.7c-0.001-0.306-0.038-0.615-0.07-0.892c-0.193-1.644-1.122-2.979-1.688-3.583
						C16.897,23.307,17.217,25.488,17.753,27.516z M-14.623,13.103c0.617,0.587,1.148,1.093,1.536,1.538
						c0.67,0.773,1.351,2.618,1.366,2.664c2.782-2.44-1.052-6.138-2.335-7.336c-0.02-0.017,2.636-0.606,4.742,1.896
						c7.312,8.688-0.853,14.956-3.681,15.645c-0.191,0.048-1.185,0.353-1.758,0.198c5.065,7.355,13.082,5.517,13.082,5.517
						s-0.619,1.183-2.617,1.217c-0.065,0.001-0.131,0.003-0.197,0.003c-0.104,0-0.21-0.003-0.313-0.008
						c0.057,0.02,0.112,0.037,0.172,0.055c0.854,0.258,2.758,1.08,5.422,0.062c0.515-0.195,1.575-0.821,1.575-0.821l-0.142,0.508
						L2.135,34.47l-0.024,0.067c-0.042,0.111-0.073,0.196-0.117,0.281s-0.09,0.171-0.136,0.256c0.077-0.029,0.154-0.062,0.228-0.096
						c0.498-0.235,0.994-0.296,1.412-0.325c0.661-0.045,1.241-0.104,1.773-0.181c0.758-0.109,1.327-0.503,1.694-1.168
						c0.11-0.198,0.235-0.39,0.331-0.558c0.411-0.722,1.283-0.792,1.283-0.792l-0.273,0.63l-0.264,0.903
						c0.134-0.106,0.283-0.216,0.382-0.37c0.479-0.755,1.606-0.839,1.606-0.839l-0.197,1.183c0.076-0.047,3.801-1.407,3.998-2.914
						c0.004-0.082,0.002-1.157,0.002-1.157s0.748,0.739,0.8,1.741c0.167-0.146,2.053-1.439,1.638-3.211
						c-0.345-1.151-0.375-2.403-0.389-4.049c-0.004-0.389,0.005-0.777,0.005-1.166V22.54c0-0.753-0.022-1.604-0.035-2.436
						c-0.035-2.299-0.542-3.133-0.542-3.133l0.126,0.046c0.134,0.042,0.236,0.088,0.339,0.141c0.475,0.245,0.901,0.605,1.316,1.101
						c0.812,0.974,1.315,2.071,1.739,3.112c0.303,0.747,0.626,1.539,0.964,2.335c1.232-3.028-1.658-5.618-1.658-5.618
						s2.232,1.204,2.848,2.406c0,0,0.535-1.478-1.86-2.536c-1.134-0.502-2.303-0.992-3.459-1.412l-0.684-0.25
						c-0.276-0.102-0.567-0.252-0.863-0.444c-0.154-0.103-0.304-0.219-0.447-0.353c0.187,0.766,0.494,1.41,0.854,2.024
						c0.561,0.958,0.822,2.184,0.965,2.812l0.125,0.556c0,0-0.712-0.876-1.191-1.145c0.017,0.098,0.037,0.191,0.066,0.279
						c0.567,1.648,0.443,2.973,0.443,2.973s-0.868-0.622-0.889-0.646c0.295,1.874-0.057,2.914-0.057,2.914s-0.685-1.967-1.243-2.356
						c-0.264,0.681-0.718,1.312-0.966,1.553c-0.765,0.746-1.214,2.627-1.214,2.627s-0.781-0.479-0.786-0.506
						c0.056,0.142,0.084,0.646-0.14,1.656c0,0-0.752-0.771-0.758-0.843c0,0-0.569,1.777-0.709,1.777
						c-0.047,0-0.274-0.764-0.33-0.907c-0.008,0.078-0.589,1.531-0.6,1.194c-0.009-0.287-0.327-0.926-0.864-0.656
						c-2.081,1.041-4.329,1.785-6.694,1.972c-5.845,0.459-7.255-1.15-7.537-1.508c0,0,2.721,0.686,6.281,0.155
						c2.308-0.342,4.52-1.071,6.571-2.19c1.455-0.793,2.643-1.677,3.612-2.689c-0.234-1.205-7.555-0.826-7.555-0.826
						s1.844-1.62,7.062-0.813c0.627,0.098,1.12-0.154,1.573-0.498c0.174-0.135,0.259-0.372,0.215-0.495
						c-0.035-0.104-0.215-0.12-0.32-0.12c-0.062,0-0.131,0.006-0.204,0.017c-0.161,0.022-0.237,0.029-0.292,0.029
						c-0.248,0,5.553-4.137,0.502-11.229C8.543,9.136,5.445,7.424,3.808,6.858C9.1,13.011,4.092,17.218,2.781,18.176
						C1.63,19.019,0.25,19.66-1.561,20.198C-1.778,20.262-2,20.323-2.232,20.386l-1.659,0.458l0.948-1.033
						c0.023-0.029,0.074-0.087,0.162-0.125c0.06-0.024,0.116-0.047,0.172-0.067c1.162-0.454,2.101-0.956,2.896-1.548
						c1.333-0.994,7.697-5.152,0.305-12.493c-0.257-0.255-0.929-0.628-1.05-0.669C1.527,8.26-0.149,10.84-0.149,10.84
						s-0.914-3.352-1.448-4.279c-0.634-1.107-1.476-2.006-2.351-2.324c1.38,2.704,0.013,4.235,0.013,4.235
						C-2.562,2.364-17.938,0.927-21.559-1.79c-0.086,0.374-0.165,0.862-0.169,1.26C-21.805,6.271-17.31,10.547-14.623,13.103z
						 M-25.256,11.102c-0.241-0.961-0.438-1.882-0.605-3.795c-0.021-0.259-0.071-1.282-0.071-1.282s1.277,5.576,7.13,6.193
						c-1.187-1.783-2.152-3.657-2.872-5.579c-0.649-1.73-1.054-3.392-1.236-5.077c-0.134-1.239-0.137-2.45-0.011-3.599
						c-0.07-0.05-0.141-0.098-0.213-0.146c-1.304,0.734-1.714,2.896-1.616,4.609c0.078,1.391,0.945,4.574,0.812,4.298
						c-0.837-1.737-2.294-4.198-2.375-6.548c-0.059-1.655,0.438-3.25,1.419-4.709c-0.144,0.026-0.316,0.09-0.528,0.192l-0.023,0.013
						l-0.071,0.066c-0.101,0.095-0.209,0.191-0.289,0.298C-31.188,3.24-25.642,10.397-25.256,11.102z M-28.816,5.438
						c-0.066-0.52-0.13-1.034-0.173-1.547c-0.145-1.701-0.077-3.209,0.204-4.607c0.247-1.223,0.636-2.156,1.225-2.936
						c0.409-0.543,0.866-0.945,1.392-1.226c-0.615-0.728-1.144-1.505-1.576-2.313c-0.225,0.305-0.385,0.592-0.492,0.891l-0.42,1.152
						c0,0-1.754-3.043-0.718-6.69C-29.375-11.839-38.007-0.48-28.816,5.438z M-29.587-13.334c0.049-0.054,0.058-0.107,0.061-0.188
						c0.04-0.83,0.078-1.528,0.136-2.229c0.002-0.004,0.002-0.009,0.002-0.014c-2.631,3.21-4.295,6.863-4.961,10.894
						C-33.734-7.76-31.172-11.589-29.587-13.334z M33.82-32.629c-0.899-0.5-2.252-0.619-3.41-0.619
						c-0.289,0-0.602,0.019-0.928,0.056c-0.063,0.008-0.123,0.013-0.182,0.013c-0.255,0-0.555,0.013-0.711-0.19
						c-0.218-0.285-0.345-0.953,1.074-0.936c0.069,0.002,0.79,0.1,1.09-0.428c0.24-0.425,0.082-1.134-0.1-1.332
						c-0.712-0.775-1.963,0.384-1.963,0.384c-0.269,0-0.955-0.218-1.683,0.51c-0.728,0.729,0.135,2.307-0.155,2.438
						c-0.279,0.11-0.358,0.146-0.625,0.283c-1.536,0.798-3.59,2.574-2.596,5.021c0.81-2.024,3.709-3.043,5.079-3.271
						c3.895-0.642,6.692,0.442,6.752,0.466C35.519-31.053,34.463-32.271,33.82-32.629z M35.125-24.905
						c-0.07-0.695-0.213-1.363-0.378-2.103c-0.216-0.966-0.802-1.601-1.741-1.884c-0.398-0.12-0.838-0.175-1.385-0.175
						c-0.921,0-1.846,0.121-2.848,0.371c-0.993,0.246-1.64,0.5-2.159,0.844c-0.646,0.426-1.034,0.94-1.188,1.58
						c-0.115,0.479-0.059,0.966,0.002,1.338c0.004,0.021,0.008,0.038,0.009,0.038c0.004,0,0.019,0.008,0.051,0.021
						c1.814,0.726,3.065,1.838,3.827,3.403c0.043,0.092,0.078,0.108,0.158,0.118c0.227,0.023,0.427,0.037,0.612,0.037
						c0.528,0,0.973-0.101,1.36-0.307c0.266-0.14,0.545-0.212,0.828-0.212c0.281,0,0.569,0.07,0.857,0.211
						c0.209,0.103,0.405,0.223,0.584,0.358c0.108,0.081,0.211,0.17,0.313,0.261C34.901-22.131,35.272-23.443,35.125-24.905z"/>
				</g>
			</g>
			<g>
				<g>
					<path fill="#0B0B0B" d="M23.788,0.518c0.811,0.51,0.896,1.321,0.896,1.321c0.292,1.267-0.922,3.356-1.311,4.421
						c-0.316,0.872-0.601,2.364-0.366,3.27c0.973-0.293,2.182-1.187,2.887-1.956c0.76-0.832,1.381-2.04,1.283-3.151
						c-0.042-0.45-0.255-1.026-0.578-1.6c-0.138-0.25-0.069-0.779,0.393-0.781c0.348-0.002,0.507,0.053,0.772,0.406
						c0.926,1.234,1.06,2.35-0.163,3.982c-0.882,1.176-1.83,2.008-3.002,2.879c-0.332,0.247-0.92,0.528-1.332,0.614
						c-0.45,0.092-0.724-0.127-0.877-0.566c-0.054-0.158-0.088-0.324-0.116-0.491c-0.26-1.475,0.075-2.805,0.797-4.124
						c0.959-1.751,0.95-2.53,0.083-4.38C23.153,0.361,23.337,0.234,23.788,0.518z"/>
				</g>
			</g>
		</g>
	</g>
</symbol>
<symbol  id="New_Symbol_9" viewBox="-54.045 -54.277 108.089 108.554">
	<g>
		<g>
			<g>
				<polygon fill="#1A1A1A" points="33.523,18.33 33.521,18.326 33.523,18.326 				"/>
				<path fill="#1A1A1A" d="M38.856-5.782c-0.82-1.612-0.57-2.881,0.743-3.958c0.926-0.759,2.038-0.969,3.2-0.945
					c0.467,0.01,0.928,0.087,1.393,0.107c0.253,0.012,0.514-0.004,0.762-0.058c0.467-0.104,0.676-0.034,0.836,0.414
					c0.363,1.026,0.535,2.088,0.411,3.17c-0.058,0.518-0.167,1.051-0.37,1.527c-0.809,1.89-3.262,2.665-5.074,1.635
					c-0.229-0.132-0.452-0.289-0.66-0.459c-0.219-0.18-0.422-0.387-0.652-0.6c0.104-0.121,0.186-0.232,0.283-0.331
					c0.221-0.225,0.303-0.491,0.236-0.791c-0.209-0.938,0.199-1.604,0.982-2.031c0.559-0.306,1.172-0.524,1.779-0.729
					c0.314-0.104,0.639-0.18,0.966-0.25c0.103,0.004,0.144,0.021,0.221,0.083c0.492,0.316,0.841,0.734,1.056,1.273
					c0.118-0.317,0.094-0.852-0.01-1.244c-0.062-0.247-0.021-0.842,0.103-1.018c-0.011-0.009-0.019-0.021-0.027-0.032
					c-0.057,0.031-0.114,0.057-0.169,0.091c-0.627,0.387-1.328,0.507-2.045,0.595c-0.885,0.114-1.748,0.317-2.5,0.828
					c-0.908,0.611-1.394,1.465-1.444,2.562C38.872-5.907,38.865-5.874,38.856-5.782z M43.138-5.661c0-0.66-0.536-1.199-1.199-1.199
					c-0.661,0-1.2,0.539-1.2,1.199c0,0.664,0.539,1.199,1.2,1.199C42.602-4.461,43.138-4.997,43.138-5.661z"/>
			</g>
		</g>
		<g>
			<g>
				<path fill="#1A1A1A" d="M28.794,3.406c0,0.067,0.004,0.138,0.004,0.208c-0.027,0.049-0.064,0.097-0.088,0.146
					C28.78,3.656,28.81,3.529,28.794,3.406z"/>
				<path fill="#1A1A1A" d="M31.331,11.523c-0.023,0-0.049-0.004-0.072-0.004c-0.012-0.026-0.024-0.058-0.039-0.082
					C31.248,11.464,31.294,11.495,31.331,11.523z"/>
			</g>
		</g>
		<path fill="#1A1A1A" d="M52.999-39.423c0.059,0.381,0.123,0.739,0.191,1.099c0.15,0.798,0.305,1.626,0.361,2.473
			c0.191,2.991-0.746,5.609-2.785,7.786l0.071,0.321c0.098,0.456,0.217,1.025,0.284,1.58c0.172,1.374-0.269,2.606-1.349,3.774
			c-0.033,0.036-0.069,0.073-0.088,0.104c-0.263,0.789-0.831,1.421-1.679,1.848c-0.499,0.252-1.023,0.44-1.568,0.562
			c0.652,0.269,1.307,0.597,1.975,0.996c0.077,0.046,0.111,0.055,0.111,0.055c2.178,0.334,3.893,2.011,4.273,4.174
			c0.008,0.052,0.014,0.1,0.021,0.15c0.011,0.093,0.022,0.194,0.034,0.226c0.859,1.325,1.016,2.825,0.461,4.442
			c-0.182,0.523-0.405,1.046-0.604,1.506c-0.156,0.362-0.308,0.716-0.441,1.069c-0.156,0.403-0.327,0.851-0.363,1.26
			c-0.103,1.137-0.27,2.633-0.682,4.122c-0.861,3.098-2.357,5.525-4.577,7.421c-2.026,1.735-4.188,2.477-7.111,2.913
			c0.397-0.625-0.131-0.906,0.152-1.596c0.114-0.282,0.145-0.544,0.144-0.803c4.998-1.708,8.775-6.258,9.412-11.728
			c0.018-0.16,0.035-0.323,0.048-0.486c0.036-0.45,0.075-0.915,0.222-1.372c0.168-0.529,0.412-1.022,0.646-1.498
			c0.098-0.197,0.195-0.393,0.286-0.595c0.083-0.18,0.169-0.36,0.255-0.539c0.178-0.373,0.379-0.796,0.539-1.212
			c0.143-0.368,0.193-0.746,0.152-1.125c-0.008,0.004-0.192,0.15-0.273,0.209c-0.072,0.055-0.146,0.114-0.218,0.17
			c-0.215,0.171-0.444,0.355-0.705,0.499c-0.185,0.103-0.378,0.153-0.575,0.153c-0.338,0-0.645-0.146-0.886-0.422l-0.396-0.451
			l0.575-0.454l0.306-0.27c0.504-0.45,0.984-0.876,1.457-1.309c-0.061-0.734-0.326-1.355-0.79-1.827
			c-0.579-0.587-1.174-0.775-1.796-0.87c-0.701-0.106-1.201,0.219-1.201,0.219s-0.388-2.124-4.784-2.13l-0.269,0.002
			c-1.293,0-2.539-0.36-3.923-1.134c-1.821-1.509-5.908-1.355-5.908-1.355c-1.149,0.191-2.228,0.485-3.269,0.898
			c-1.921,0.769-3.612,1.858-4.924,3.482c-0.707,0.871-1.236,1.838-1.598,2.901c-0.034,0.097-0.074,0.189-0.111,0.287
			c-0.02-1.035,0.199-2.011,0.643-2.934c0.904-1.854,2.395-3.069,4.26-3.867c1.617-0.692,3.314-0.928,5.062-0.843l0.369-0.414
			c0.179-0.196,0.369-0.258,0.496-0.289c0.713-0.17,1.467-0.252,2.304-0.252c0.323,0,2.286,0.451,4.287-0.559
			c0.181-0.091,0.423-0.198,0.712-0.198c0.148,0,0.292,0.025,0.434,0.079l0.221,0.084c0.475,0.179,1.403,0.56,1.403,0.56
			c5.721,1.259,6.536-3.066,6.536-3.066c-0.148,0.065-0.322,0.121-0.516,0.121c-0.225,0-0.436-0.075-0.627-0.218l-0.65-0.494
			l0.977-0.614c0.202-0.125,0.383-0.238,0.559-0.358c0.224-0.152,0.312-0.361,0.301-0.699c-0.026-0.882-1.056-1.779-2.036-1.779
			c-0.112,0-0.22,0.011-0.321,0.034c-0.4,0.088-0.619,0.219-0.749,0.444c-0.112,0.194-0.372,0.4-0.679,0.4l-0.26-0.011
			c-0.311-0.015-0.629-0.026-0.951-0.101l-0.074-0.017c-0.434-0.098-0.836-0.19-1.23-0.19c-0.141,0-0.271,0.014-0.402,0.039
			c-0.187,0.034-0.37,0.078-0.556,0.125l-0.868,0.206l-0.146-0.519c-0.221-0.768-0.576-1.458-1.092-2.113
			c-1.109-1.409-2.596-2.406-4.544-3.044c-1.436-0.472-2.988-0.71-4.609-0.71c-0.856,0-1.757,0.066-2.681,0.197
			c-3.486,0.5-5.921,2.393-7.233,5.627c-0.218,0.534-0.372,1.125-0.522,1.695c-0.084,0.322-0.16,0.624-0.248,0.922
			c-0.46,1.565-1.043,2.954-1.781,4.246c-1.36,2.375-3.049,4.068-5.163,5.183c-1.698,0.893-3.552,1.345-5.513,1.345
			c-0.814,0-1.665-0.077-2.526-0.229c-0.356-0.064-0.718-0.1-1.071-0.231c-1.86-0.712-2.093-1.038-2.093-1.038l0.899-0.054
			c0.149-0.008,0.476-0.053,0.805-0.096c0.363-0.047,0.73-0.095,0.889-0.102c0.627-0.03,1.223-0.059,1.811-0.121
			c2.465-0.248,4.708-1.004,6.664-2.243c2.629-1.667,4.24-3.729,4.922-6.301c0.421-1.583,1.021-3.163,1.781-4.692
			c0.455-0.909,1.032-1.961,1.879-2.868c1.199-1.287,2.734-2.161,4.824-2.75c0.559-0.156,1.108-0.33,1.574-0.479
			c0.055-0.015,0.111-0.047,0.169-0.197c0.261-0.675,0.323-1.332,0.19-2.006c-0.205-1.052-0.712-2.03-1.548-2.995
			c-0.665-0.764-1.525-1.348-2.36-1.911c-0.463-0.311-0.895-0.64-1.293-0.977c-0.494-0.423-0.75-0.99-0.724-1.596
			c0.022-0.5,0.061-1.336,0.911-1.336c0.183,0,0.395,0.043,0.726,0.153c0.142,0.046,0.281,0.104,0.42,0.163l0.735,0.319
			c0.41,0.175,0.821,0.353,1.23,0.526c0.822,0.34,1.625,0.515,2.392,0.515c0.401,0,0.806-0.046,1.198-0.143
			c1.123-0.269,2.149-0.882,2.385-1.769c0,0,0.784-3.402-4.865-3.359c-0.456,0-0.92,0.109-1.413,0.229l-0.265,0.062
			c-0.539,0.126-1.021,0.186-1.476,0.188c-0.429,0-0.823-0.074-1.204-0.146l-0.175-0.03c-1.127-0.205-2.336-0.298-3.917-0.298
			c-0.707,0-33.621,0.029-33.621,0.029c-2.967,0-5.783,0.417-8.368,1.094c-10.759,2.814-18.417,8.839-23.413,18.029
			c-1.813,3.342-3.053,6.948-3.691,10.79c0.033-0.056,0.295-0.909,0.295-0.909c1.486-2.53,3.287-4.529,3.287-4.529
			s-4.087,10.853-4.088,11.325c-0.004,1.488,0.088,3.008,0.271,4.524c0.115-0.38,0.235-0.753,0.366-1.125
			c1.831-5.219,4.608-10.106,8.487-14.949c0.095-0.116,0.17-0.252,0.209-0.373c0.599-1.841,1.411-3.593,2.416-5.221
			c-2.271,0.466-5.514,3.66-5.514,3.66l0.422-0.812c2.535-4.888,8.506-7.864,9.674-8.288c3.423-3.041,7.58-5.245,12.35-6.555
			c0.27-0.074,0.543-0.138,0.814-0.2l2.33-0.556l-1.488,1.441c-0.171,0.167-0.355,0.231-0.469,0.271
			c-3.379,1.206-6.471,2.906-9.188,5.049c-3.551,2.797-6.105,6.223-7.596,10.171c-0.18,0.474-0.16,0.721-0.076,0.943
			c0.08,0.216,0.137,0.436,0.191,0.648c0.038,0.154,0.065,0.263,0.098,0.367c0.791,2.582,1.982,4.603,3.65,6.169
			c1.555,1.466,3.544,2.541,6.087,3.286c2.421,0.712,4.976,1.039,7.446,1.354l1.077,0.139c1.397,0.182,2.809,0.401,4.173,0.61
			l0.711,0.111c-0.924-1.188-1.725-2.462-2.385-3.806c-0.168-0.055-5.186-1.184-5.785-1.311c-7.969-1.7-8.507-6.762-8.507-6.762
			s3.44,4.559,11.714,4.807l0.289,0.003c0.335-0.004,0.664-0.015,1.01-0.03c-2.295-11.986,2.152-16.15,2.115-16.014
			c-1.008,3.831-1.26,7.316-0.771,10.659c0.629,4.334,2.541,8.068,5.676,11.101c2.132,2.062,4.818,3.795,8.208,5.302
			C0.043-9.932,3.147-9.136,6.073-8.43l0.561,0.132c2.141,0.516,4.314,1.039,6.43,1.66c3.275,0.96,6.125,2.542,8.467,4.704
			c0.356,0.329,0.763,0.701,1.105,1.147c1.658,2.148,3.539,3.779,5.711,4.99c0.299-1.371,1.086-2.661,2.369-3.444
			c-1.349,2.311-2.031,4.666-1.393,6.841c0.608,1.945,1.617,2.922,2.688,4.801c1.273,2.455,1.41,5.939,1.431,5.961
			c0.234,0.241,0.397,0.478,0.639,0.714c0.296,0.295,0.571,0.585,0.862,0.884c0.861,0.892,1.494,2.005,1.758,3.337
			c0.277,1.388-0.355,2.13-0.355,2.13c0.234,0.854,0.546,1.691,0.611,2.547c0.12,1.594-0.37,3.065-0.592,3.065
			c-0.109,0-2.045-2.207-3.109-2.62c-0.252,1.516-0.641,3.052-1.246,4.971c-0.454,1.443-0.58,2.627-0.397,3.731
			c0.138,0.824,1.139,1.972,1.139,1.972l0.464,0.547l-0.639,0.326c-0.105,0.062-0.927,0.245-1.203,0.245
			c-0.805,0-1.465-0.289-1.942-0.843c-0.097,0.657-0.11,1.321-0.048,1.991c0.105,1.155,0.566,2.215,0.952,3.013
			c0.118,0.242,0.265,0.562,0.367,0.906c0.121,0.422,0.062,0.82-0.167,1.128c-0.229,0.307-0.594,0.474-1.026,0.474
			c-0.374-0.006-0.712-0.064-1.004-0.176c-1.312-0.494-2.337-1.333-3.058-2.495c-0.236,0.271-0.454,0.571-0.586,0.933
			c-0.176,0.479-0.401,0.925-0.618,1.335c-0.181,0.347-0.425,0.521-0.722,0.521c-0.214,0-0.376-0.093-0.495-0.198
			c-0.376,1.009-0.995,1.859-1.841,2.533c-0.055,0.044-0.109,0.078-0.189,0.126l-1.143,0.701c0,0,0.225-1.47,0.225-1.471
			c-2.929,1.9-6.164,3.28-9.628,4.104c-0.276,0.065-0.556,0.12-0.835,0.175c-0.84,0.166-1.619,0.318-2.295,0.739
			c-0.082,0.054-0.163,0.075-0.2,0.085c-0.098,0.04-0.233,0.065-0.358,0.065c-0.264,0-0.528-0.113-0.75-0.34
			c-0.349,0.008-0.74,0.035-1.087,0.067L4.605,53.6c-0.057,0.006-0.495,0.006-0.559,0.006l-0.604-0.271c0,0-1.455,0.941-1.969,0.941
			H0.992c-0.378,0-0.718-0.245-0.897-0.55c-0.146-0.246-0.365-0.177-0.437-0.179c-2.411-0.15-4.721-0.504-6.86-1.035
			c-3.765-0.935-6.908-2.338-9.605-4.278c-2.359-1.697-4.091-3.567-5.295-5.711c-0.266-0.474-0.475-0.967-0.673-1.441
			c-0.244-0.573-0.269-1.095-0.103-1.604c0.176-0.523,0.599-0.847,1.107-0.847c0.063,0,0.131,0.006,0.197,0.017
			c0.26,0.042,0.52,0.062,0.773,0.062c1.202,0,2.374-0.447,3.691-1.404c1.411-1.025,2.412-2.312,2.973-3.815
			c0.803-2.159,0.438-4.166-1.088-5.968c-0.48,1.596-1.119,2.798-2.01,3.772c-0.625,0.688-1.361,1.208-2.185,1.543
			c-0.129,0.054-0.257,0.088-0.392,0.106l-0.215,0.03c0,0,1.045-2.365,1.174-3.355c0.271-2.129-0.011-5.117-2.08-5.695
			c-0.624-0.174-1.221-0.429-1.832-0.642c-1.102-0.382-2.242-0.778-3.363-1.195c-3.146-1.173-5.946-2.488-8.549-4.022
			c0.012,0.222,0.042,0.443,0.072,0.676l0.041,0.34c0.012,0.049,0.021,0.088,0.024,0.126c0.062,0.472-0.013,0.824-0.226,1.068
			c-0.165,0.188-0.405,0.293-0.674,0.293c-0.211,0-0.441-0.062-0.704-0.189c-0.354-0.172-0.711-0.461-1.007-0.813
			c-0.749-0.9-1.201-1.905-1.671-3.03c-0.11-0.271-0.214-0.541-0.316-0.815l-0.019-0.061c-0.095-0.248-0.189-0.505-0.292-0.749
			c-0.058-0.13-0.139-0.25-0.22-0.319c-2.814-2.391-4.943-4.599-6.7-6.941c-1.366-1.82-2.563-3.739-3.568-5.716
			c-0.146,1.527-0.137,3.043,0.017,4.612c0,0-2.934-2.368-2.285-10.002c0.002-0.012,0.002-0.068-0.039-0.205
			C-53.096-6.335-53.645-9-53.877-11.58c-0.846-9.451,1.512-18.2,7.005-25.769c5.847-8.06,13.777-13.487,23.571-15.753
			c2.598-0.604,5.469-1.169,9.606-1.169c0,0,16.235,0,17.264,0l23.565,0.047c0,0,2.766,0.001,4.344,0.856
			c1.343,0.729,2.111,1.459,2.66,2.735c0.848,1.971,0.123,4.488-1.688,5.811c-1.075,0.786-2.348,1.181-3.892,1.181
			c-0.146,0-0.291,0.005-0.439-0.001c-0.154-0.008-0.31-0.019-0.462-0.032c1.201,1.224,2.023,2.673,2.449,4.312
			c0.189,0.734,0.25,1.5,0.184,2.271l-0.005,0.04l0.368,0.019c0.824,0.037,1.654,0.075,2.473,0.136
			c-0.271-0.35-0.48-0.753-0.627-1.207c-0.404-1.273-0.572-2.338-0.53-3.339c0.073-1.763,0.744-3.417,1.985-4.906
			c0.963-1.15,2.141-2.074,3.599-2.814c-0.142-0.614-0.106-1.244,0.11-1.863c0.17-0.47,0.479-0.85,0.924-1.099
			c0.493-0.275,1.028-0.445,1.59-0.445c0.201,0,0.414-0.04,0.642,0.012c0.892-1.972,3.062-1.707,3.062-1.707
			c1.785,0.411,2.4,2.096,2.221,3.461c-0.025,0.163-0.053,0.34-0.09,0.498l0.095,0.035c0.472,0.112,0.962,0.237,1.447,0.406
			c3.295,1.146,5.418,3.396,6.315,6.686C54.273-41.707,53.978-40.44,52.999-39.423z M28.391,12.486
			C23.349-1.556,11.564-3.452,10.369-3.452l-5.546,0.12L6.3-4.328l0.375-0.147c0.176-0.073,0.336-0.139,0.507-0.188
			C7.329-4.706,7.48-4.747,7.626-4.788c-0.746-0.157-1.51-0.31-2.258-0.417c-2.01-0.286-4.381-0.676-6.73-1.389
			c-0.105-0.03-0.215-0.048-0.318-0.048l-0.061,0.003c-2.189,0.148-4.381,0.308-6.57,0.47c-1.332,0.095-2.555,0.141-3.732,0.141
			c-1.408,0-2.721-0.064-4.01-0.2c-2.898-0.307-5.766-1.001-8.521-2.067c-7.928-3.377-12.145-7.889-12.145-7.889
			s8.486,4.309,11.455,5.441c2.842,1.082,5.109,1.354,8.405,1.337c1.47-0.009,6.21-0.015,9.005-0.08
			c-0.66-0.389-1.292-0.798-1.896-1.244c-0.501-0.369-1.048-0.646-1.676-0.884c-0.47-0.176-0.974-0.355-1.49-0.517
			c-2.17-0.687-4.459-1.085-6.67-1.474c0,0-0.905-0.159-1.312-0.23c-2.147-0.388-4.434-0.804-6.685-1.304
			c-2.229-0.491-4.166-1.214-5.922-2.213c-3.229-1.834-5.141-4.599-5.686-8.22c-0.939,1.774-1.493,3.51-1.689,5.287
			c-0.333,2.963,0.553,5.493,2.623,7.518c0.152,0.151,0.248,0.33,0.324,0.485c0.111,0.226,0.217,0.454,0.32,0.683
			c0.182,0.399,0.389,0.854,0.627,1.245c0.917,1.506,2.229,2.788,4.129,4.037c1.937,1.271,4.219,2.331,7.178,3.332
			c4.076,1.377,8.314,2.275,12.293,3.038c1.504,0.289,3.012,0.574,4.52,0.859l0.367,0.068c1.773,0.334,3.547,0.668,5.32,1.015
			c3.105,0.603,5.587,1.394,7.814,2.489c3.524,1.736,6.198,3.591,8.408,5.836c1.775,0.057,3.363,0.221,4.877,0.508
			c4.044,0.767,7.884,2.297,11.426,4.55C29.074,14.359,28.726,13.419,28.391,12.486z M32.269,25.391
			c0.49,0.238,1.053,0.399,1.595,0.557c0,0,0.339,0.099,0.474,0.139c-0.029-0.152-0.061-0.293-0.105-0.429
			c-0.833-2.552-2.285-4.821-4.319-6.748c-1.312-1.241-2.923-2.261-5.222-3.306c-1.932-0.879-4.021-1.604-6.477-2.245
			c0.705,0.204,1.409,0.45,2.106,0.742c3.61,1.498,6.913,3.771,10.099,6.947c0.045,0.043,0.081,0.092,0.116,0.145l0.977,1.344
			l-1.586-0.452c-0.182-0.054-0.308-0.136-0.408-0.205c-2.694-1.87-5.154-3.374-7.519-4.597c-1.481-0.767-3.362-1.613-5.25-2.1
			c-0.038-0.01-0.227-0.019-0.227-0.029v0.005c0,0.711,0.348,1.404,0.879,2.071c0.388,0.489,1.126,1.099,1.666,1.511
			c1.637,1.246,3.43,2.25,4.941,3.037c-0.553-0.711-1.131-1.276-1.914-1.666c0,0,0.909-0.957,2.09-0.532
			c1.348,0.485,1.974,0.954,2.85,1.685c0.49,0.412,0.977,0.83,1.459,1.25c0.566,0.489,1.268,1.098,1.949,1.652
			C30.934,24.562,31.581,25.06,32.269,25.391z M25.768,40.066c0.452,1.719,0.982,2.95,1.698,3.987
			c0.331,0.474,0.673,0.823,1.053,1.079c-0.018-0.04-0.075-0.178-0.075-0.178c-1.046-2.551-1.558-5.255-1.567-8.275
			c-0.002-0.441-0.055-0.892-0.103-1.292c-0.28-2.386-1.628-4.326-2.449-5.2C24.525,33.957,24.989,37.124,25.768,40.066z
			 M-21.222,19.147c0.896,0.852,1.666,1.586,2.229,2.231c0.972,1.125,1.499,2.483,1.915,3.667c0.023,0.067,0.044,0.134,0.067,0.199
			c0.499-1.281,0.606-2.396,0.358-3.542c-0.658-3.04-1.885-5.365-3.747-7.104c-0.028-0.024,3.106,0.166,5.634,2.93
			c2.408,2.631,3.68,5.811,3.857,9.379c0.066,1.373-0.09,2.726-0.243,4.035l-0.062,0.53c-0.47,4.134-3.54,7.583-7.646,8.583
			c-0.277,0.068-0.518,0.157-0.718,0.262c-0.098,0.051-0.122,0.064-0.064,0.221c0.03,0.085,0.078,0.179,0.149,0.291
			c0.65,1.011,1.48,1.841,2.465,2.469c0.578,0.367,1.133,0.718,1.662,1.098c2.276,1.629,4.548,2.738,6.946,3.398
			c0.839,0.231,1.744,0.338,2.636,0.455c0.767,0.101,3.36,0.101,3.36,0.101s-0.898,1.718-3.8,1.767
			c-0.094,0.001-0.189,0.004-0.285,0.004c-0.152,0-0.305-0.004-0.455-0.012c0.082,0.028,0.162,0.054,0.249,0.08
			c1.239,0.374,2.521,0.556,3.922,0.556c0.461,0,0.938-0.021,1.421-0.062l0.149-0.013c0.53-0.042,1.009-0.042,1.391-0.306
			c1.761-1.218,3.272-1.278,3.272-1.278l-0.207,0.736l-0.135,0.338l-0.035,0.097c-0.061,0.161-0.105,0.285-0.17,0.408
			s-0.131,0.249-0.197,0.372c0.113-0.042,0.225-0.09,0.33-0.139c0.724-0.342,1.443-0.43,2.051-0.472
			c0.959-0.064,1.801-0.151,2.572-0.263c1.101-0.159,1.927-0.728,2.46-1.695c0.16-0.288,0.342-0.562,0.48-0.808
			c0.597-1.048,1.862-1.149,1.862-1.149l-0.396,0.914l-0.383,1.312c0.194-0.155,0.411-0.313,0.554-0.537
			c0.696-1.095,2.333-1.218,2.333-1.218l-0.285,1.714c0.11-0.068,5.516-2.043,5.803-4.229c0.006-0.119,0.002-1.681,0.002-1.681
			s1,2.035,1.162,2.528c0.242-0.215,1.017-0.979,1.561-2.52c0.147-0.418,0.277-0.8,0.434-1.179c0.103-0.248,0.188-0.472,0.305-0.671
			c0.057-0.1,0.024-0.195,0.077-0.292c-0.501-1.672-0.544-3.489-0.563-5.876c-0.006-0.564,0.007-1.128,0.007-1.693v-0.24
			c0-1.094-0.032-2.329-0.052-3.534c-0.051-3.337-0.786-4.548-0.786-4.548l0.183,0.067c0.194,0.062,0.343,0.127,0.492,0.204
			c0.688,0.354,1.309,0.879,1.91,1.597c1.18,1.412,1.909,3.006,2.525,4.518c0.439,1.085,0.908,2.233,1.397,3.389
			c1.789-4.396-2.405-8.154-2.405-8.154s3.24,1.748,4.133,3.492c0,0,0.776-2.145-2.701-3.681c-1.645-0.729-3.341-1.44-5.02-2.049
			l-0.992-0.363c-0.402-0.147-0.824-0.365-1.254-0.646c-0.223-0.146-0.439-0.314-0.648-0.51c0.271,1.11,0.717,2.046,1.238,2.938
			c0.814,1.391,1.194,3.17,1.4,4.084l0.182,0.805c0,0-1.033-1.271-1.729-1.66c0.023,0.143,0.053,0.278,0.096,0.406
			c0.824,2.394,0.645,4.313,0.645,4.313s-1.261-0.901-1.29-0.938c0.428,2.72-0.083,4.229-0.083,4.229s-0.994-2.853-1.805-3.419
			c-0.382,0.988-1.041,1.901-1.4,2.253c-1.11,1.083-1.762,3.813-1.762,3.813s-1.135-0.695-1.143-0.734
			c0.082,0.204,0.123,0.938-0.201,2.403c0,0-1.092-1.118-1.102-1.222c0,0-0.825,2.58-1.027,2.58c-0.068,0-0.398-1.108-0.48-1.318
			c-0.01,0.114-0.854,2.224-0.869,1.735c-0.013-0.417-0.475-1.345-1.254-0.954c-3.021,1.511-6.283,2.592-9.717,2.861
			c-8.482,0.666-10.529-1.67-10.939-2.188c0,0,3.949,0.994,9.117,0.227c3.349-0.496,6.559-1.556,9.537-3.181
			c2.111-1.151,3.836-2.434,5.242-3.903c-0.339-1.75-10.964-1.199-10.964-1.199s2.676-2.353,10.249-1.182
			c0.91,0.143,1.625-0.224,2.283-0.723c0.252-0.195,0.376-0.54,0.312-0.718c-0.051-0.152-0.312-0.176-0.464-0.176
			c-0.092,0-0.19,0.01-0.297,0.023c-0.234,0.034-0.345,0.044-0.424,0.044c-0.359,0,8.059-6.004,0.729-16.298
			c-1.522-2.14-6.018-4.624-8.396-5.444c7.681,8.931,0.414,15.037-1.49,16.427c-1.67,1.223-3.674,2.155-6.301,2.937
			c-0.316,0.093-0.639,0.181-0.976,0.271l-2.408,0.665l1.377-1.5c0.034-0.043,0.107-0.126,0.235-0.182
			c0.086-0.036,0.168-0.068,0.249-0.099c1.687-0.658,3.049-1.388,4.202-2.246c1.937-1.443,11.174-7.479,0.443-18.132
			c-0.373-0.37-1.348-0.912-1.523-0.972c2.883,4.864,0.447,8.609,0.447,8.609s-1.326-4.865-2.1-6.211
			C-3.239,8.047-4.46,6.743-5.73,6.281c2.003,3.925,0.019,6.146,0.019,6.146L-6.2,10.806c-0.331-1.096-0.663-1.75-1.323-2.59
			c-1.248-1.59-2.705-2.96-4.334-4.071c-1.162-0.795-2.314-1.404-3.525-1.868c-1.992-0.764-4.113-1.278-6.162-1.776l-0.812-0.198
			c-2.448-0.599-4.435-1.111-6.252-1.621c-1.033-0.29-1.913-0.664-2.681-1.146c-0.125,0.542-0.239,1.251-0.244,1.829
			C-31.645,9.232-25.122,15.438-21.222,19.147z M-38.985,7.492c0.242,1.74,0.572,3.79,1.166,5.803
			c0.252,0.854,0.605,1.927,1.164,2.949c-0.35-1.396-0.637-2.73-0.879-5.508c-0.031-0.375-0.104-1.861-0.104-1.861
			s1.854,8.093,10.348,8.99c-1.723-2.59-3.123-5.311-4.168-8.1c-0.941-2.512-1.529-4.923-1.793-7.368
			c-0.194-1.8-0.198-3.558-0.016-5.224c-0.103-0.07-0.204-0.141-0.31-0.212c-0.601,2.89-0.825,5.506-0.683,7.994
			c0.113,2.017,0.865,7.162,0.865,7.162c-0.223-0.317-1.156-1.826-1.349-2.229c-1.214-2.521-1.86-5.402-1.979-8.812
			c-0.085-2.404,0.108-4.867,0.591-7.525c-0.208,0.038-0.459,0.129-0.767,0.279l-0.034,0.018l-0.104,0.098
			c-0.146,0.137-0.297,0.28-0.42,0.432c-0.492,0.592-0.879,1.312-1.19,2.195c-0.646,1.857-0.742,3.773-0.751,5.402
			C-39.403,3.656-39.269,5.458-38.985,7.492z M-41.823,8.023c-0.097-0.752-0.188-1.5-0.251-2.245
			c-0.21-2.471-0.112-4.658,0.296-6.688c0.359-1.773,0.923-3.129,1.777-4.26c0.595-0.788,1.258-1.372,2.021-1.777
			c-0.894-1.057-1.66-2.185-2.288-3.359c-0.326,0.442-0.559,0.858-0.715,1.292l-0.609,1.673c0,0-2.46-3.188-0.956-8.48l-0.088,0.13
			c-0.579,0.835-1.179,1.699-1.727,2.578c-1.964,3.141-3.405,6.224-4.405,9.421c-0.014,0.04-0.017,0.078-0.014,0.092
			C-47.227,0.675-44.887,4.587-41.823,8.023z M-49.132-8.623c1.527-3.339,3.494-6.708,6.189-10.599
			c0.062-0.086,0.084-0.157,0.088-0.272c0.059-1.205,0.114-2.218,0.197-3.233c0.004-0.007,0.004-0.014,0.004-0.021
			c-3.818,4.659-6.234,9.962-7.2,15.811C-49.64-7.479-49.399-8.039-49.132-8.623z M49.087-47.226
			c-1.305-0.726-3.268-0.898-4.949-0.898c-0.42,0-0.873,0.025-1.347,0.08c-0.092,0.011-0.179,0.018-0.265,0.018
			c-0.369,0-0.804,0.02-1.031-0.275c-0.316-0.414-0.5-1.383,1.56-1.358c0.101,0.003,1.146,0.146,1.582-0.621
			c0.349-0.614,0.119-1.644-0.146-1.933c-1.033-1.125-2.848,0.557-2.848,0.557c-0.391,0-1.387-0.314-2.442,0.74
			c-1.056,1.057,0.196,3.348-0.226,3.536c-0.405,0.162-0.52,0.211-0.906,0.413c-2.23,1.157-5.211,3.737-3.768,7.289
			c1.175-2.938,5.383-4.417,7.371-4.746c5.652-0.931,9.713,0.642,9.8,0.675C51.55-44.938,50.02-46.707,49.087-47.226z
			 M50.981-36.016c-0.102-1.012-0.309-1.98-0.549-3.052c-0.312-1.401-1.163-2.322-2.526-2.734c-0.578-0.174-1.217-0.253-2.01-0.253
			c-1.337,0-2.679,0.176-4.133,0.538c-1.441,0.358-2.38,0.726-3.135,1.225c-0.938,0.618-1.5,1.367-1.725,2.293
			c-0.167,0.694-0.085,1.402,0.003,1.941c0.007,0.032,0.011,0.056,0.013,0.056c0.006,0,0.027,0.011,0.074,0.03
			c2.633,1.051,4.449,2.667,5.555,4.938c0.062,0.133,0.113,0.159,0.229,0.171c0.328,0.035,0.618,0.055,0.888,0.055
			c0.768,0,1.412-0.146,1.975-0.444c0.387-0.203,0.791-0.308,1.202-0.308c0.408,0,0.827,0.102,1.245,0.306
			c0.303,0.148,0.588,0.322,0.848,0.521c0.156,0.118,0.306,0.247,0.455,0.379C50.656-31.989,51.193-33.894,50.981-36.016z"/>
		<g>
			<g>
				<path fill="#1A1A1A" d="M34.525,0.882c1.176,0.739,1.3,1.919,1.3,1.919c0.424,1.837-1.338,4.871-1.902,6.417
					c-0.459,1.267-0.871,3.433-0.531,4.744c1.411-0.426,3.166-1.721,4.189-2.839c1.103-1.208,2.004-2.96,1.862-4.574
					c-0.061-0.653-0.37-1.491-0.839-2.322c-0.2-0.362-0.1-1.131,0.569-1.134c0.505-0.002,0.736,0.077,1.121,0.589
					c1.344,1.792,1.538,3.41-0.236,5.78c-1.28,1.706-2.655,2.914-4.357,4.178c-0.481,0.358-1.335,0.77-1.933,0.894
					c-0.653,0.132-1.051-0.185-1.273-0.824c-0.078-0.229-0.127-0.47-0.166-0.713c-0.378-2.14,0.108-4.07,1.155-5.985
					c1.392-2.541,1.38-3.672,0.121-6.356C33.606,0.655,33.872,0.471,34.525,0.882z"/>
			</g>
		</g>
	</g>
</symbol>
<text transform="matrix(1 0 0 1 119.9424 104.2578)" font-family="'AvenirNext-DemiBold'" font-size="45.9139">Outlined black</text>
<g>
	<g>
		
			<use xlink:href="#New_Symbol_9"  width="108.089" height="108.554" id="XMLID_1_" x="-54.045" y="-54.277" transform="matrix(4.6067 0 0 -4.6067 1439.4668 777.5947)" overflow="visible"/>
	</g>
	<g>
		<path fill="#1A1A1A" d="M1249.424,1094.004h80.455v19.365h-58.273v34.154h54.931v18.662h-54.931v52.463h-22.182V1094.004z"/>
		<path fill="#1A1A1A" d="M1349.597,1085.555h21.127v133.095h-21.127V1085.555z"/>
		<path fill="#1A1A1A" d="M1393.784,1105.447c0-3.402,1.261-6.365,3.786-8.892c2.521-2.521,5.721-3.784,9.594-3.784
			c3.874,0,7.131,1.204,9.771,3.608c2.641,2.408,3.961,5.431,3.961,9.066c0,3.641-1.32,6.664-3.961,9.065
			c-2.642,2.408-5.897,3.609-9.771,3.609c-3.873,0-7.071-1.26-9.594-3.785C1395.045,1111.816,1393.784,1108.854,1393.784,1105.447z
			 M1396.777,1134.145h21.127v84.505h-21.127V1134.145z"/>
		<path fill="#1A1A1A" d="M1443.605,1134.145h20.069v13.556h0.353c1.877-4.226,5.134-7.949,9.771-11.178
			c4.635-3.228,10.122-4.845,16.46-4.845c5.517,0,10.238,0.972,14.173,2.906c3.932,1.938,7.157,4.488,9.684,7.658
			c2.521,3.17,4.371,6.809,5.546,10.916c1.171,4.109,1.761,8.334,1.761,12.676v52.814h-21.127v-46.83
			c0-2.465-0.176-5.045-0.527-7.746c-0.353-2.697-1.117-5.133-2.289-7.307c-1.175-2.171-2.789-3.962-4.842-5.369
			c-2.055-1.408-4.784-2.111-8.186-2.111c-3.406,0-6.339,0.676-8.803,2.025c-2.466,1.35-4.49,3.08-6.074,5.19
			c-1.585,2.113-2.79,4.552-3.609,7.308c-0.822,2.76-1.232,5.545-1.232,8.362v46.478h-21.127V1134.145L1443.605,1134.145z"/>
		<path fill="#1A1A1A" d="M1546.418,1085.555h21.127v84.152h0.527l32.041-35.562h27.112l-36.618,38.203l38.907,46.302h-27.991
			l-33.451-43.31h-0.527v43.31h-21.127V1085.555z"/>
	</g>
</g>
<g>
	
		<use xlink:href="#New_Symbol_10"  width="74.472" height="74.981" id="XMLID_10_" x="-37.236" y="-37.491" transform="matrix(1.6523 0 0 -1.6523 274.5635 1155.2812)" overflow="visible"/>
	<g>
		<g>
			<path fill="#0B0B0B" d="M351.884,1131.66h55.28v13.307h-40.039v23.467h37.74v12.822h-37.74v36.047h-15.241V1131.66z"/>
			<path fill="#0B0B0B" d="M420.711,1125.854h14.516v91.449h-14.516V1125.854z"/>
			<path fill="#0B0B0B" d="M451.072,1139.523c0-2.339,0.865-4.375,2.601-6.109c1.733-1.732,3.933-2.6,6.592-2.6
				c2.661,0,4.899,0.827,6.714,2.479c1.814,1.654,2.723,3.732,2.723,6.23c0,2.5-0.907,4.577-2.723,6.229
				c-1.813,1.654-4.053,2.48-6.714,2.48c-2.659,0-4.857-0.865-6.592-2.603C451.938,1143.898,451.072,1141.863,451.072,1139.523z
				 M453.128,1159.24h14.517v58.062h-14.517V1159.24z"/>
			<path fill="#0B0B0B" d="M485.303,1159.24h13.789v9.313h0.243c1.288-2.903,3.526-5.463,6.714-7.682
				c3.186-2.217,6.955-3.326,11.311-3.326c3.789,0,7.033,0.664,9.736,1.996c2.701,1.33,4.918,3.084,6.653,5.262
				c1.733,2.178,3.003,4.678,3.812,7.5c0.806,2.822,1.209,5.728,1.209,8.709v36.289h-14.517v-32.176c0-1.693-0.12-3.468-0.362-5.322
				c-0.241-1.854-0.768-3.527-1.572-5.021c-0.807-1.49-1.917-2.722-3.325-3.689c-1.412-0.967-3.288-1.451-5.625-1.451
				c-2.34,0-4.355,0.465-6.049,1.391c-1.693,0.931-3.084,2.117-4.173,3.568c-1.09,1.453-1.918,3.127-2.479,5.021
				c-0.565,1.896-0.848,3.812-0.848,5.745v31.937h-14.517V1159.24z"/>
			<path fill="#0B0B0B" d="M555.943,1125.854h14.516v57.82h0.363l22.016-24.434h18.629l-25.161,26.248l26.732,31.813h-19.233
				l-22.981-29.758h-0.363v29.758h-14.516L555.943,1125.854L555.943,1125.854z"/>
		</g>
	</g>
</g>
<g>
	
		<use xlink:href="#New_Symbol_9"  width="108.089" height="108.554" x="-54.045" y="-54.277" transform="matrix(7.3988 0 0 -7.3988 615.8281 492.209)" overflow="visible"/>
</g>
<g>
	<g>
		<path fill="#1A1A1A" d="M1565.707,350.326h67.215v16.178h-48.684v28.535h45.89v15.59h-45.89v43.83h-18.531V350.326z"/>
		<path fill="#1A1A1A" d="M1649.396,343.266h17.648v111.193h-17.648V343.266z"/>
		<path fill="#1A1A1A" d="M1686.311,359.885c0-2.842,1.054-5.315,3.164-7.426c2.105-2.107,4.779-3.162,8.016-3.162
			s5.956,1.006,8.162,3.014c2.207,2.013,3.31,4.537,3.31,7.574c0,3.041-1.103,5.566-3.31,7.576c-2.206,2.01-4.928,3.014-8.162,3.014
			c-3.235,0-5.909-1.051-8.016-3.159C1687.363,365.205,1686.311,362.73,1686.311,359.885z M1688.812,383.859h17.649v70.6h-17.649
			V383.859z"/>
		<path fill="#1A1A1A" d="M1727.934,383.859h16.769v11.325h0.293c1.567-3.528,4.288-6.643,8.163-9.34
			c3.873-2.694,8.457-4.045,13.752-4.045c4.607,0,8.554,0.81,11.841,2.426c3.282,1.619,5.979,3.753,8.09,6.398
			c2.106,2.647,3.651,5.688,4.633,9.119c0.979,3.434,1.472,6.965,1.472,10.59v44.125h-17.649v-39.123
			c0-2.062-0.147-4.215-0.442-6.473c-0.293-2.254-0.933-4.287-1.912-6.104c-0.979-1.812-2.33-3.309-4.044-4.486
			c-1.717-1.176-3.995-1.764-6.839-1.764c-2.846,0-5.295,0.564-7.354,1.691c-2.06,1.127-3.752,2.574-5.074,4.338
			c-1.323,1.766-2.33,3.801-3.016,6.104c-0.688,2.306-1.029,4.634-1.029,6.986v38.83h-17.649v-70.598H1727.934z"/>
		<path fill="#1A1A1A" d="M1813.826,343.266h17.65v70.306h0.44l26.769-29.711h22.65l-30.593,31.918l32.504,38.682h-23.385
			l-27.945-36.182h-0.44v36.182h-17.65V343.266z"/>
	</g>
	
		<use xlink:href="#New_Symbol_10"  width="74.472" height="74.981" x="-37.236" y="-37.491" transform="matrix(4.771 0 0 -4.771 1369.1055 275.4668)" overflow="visible"/>
</g>
</svg>
