<?xml version="1.0" encoding="utf-8"?>
<svg width="88" height="79" viewBox="0 0 88 79" fill="none" xmlns="http://www.w3.org/2000/svg">
    <circle cx="25.999" cy="8.5343" r="4.5" stroke="#C679D4" stroke-width="3"/>
    <path d="M51.999 10.0343C52.8274 10.0343 53.499 9.36273 53.499 8.5343C53.499 7.70587 52.8274 7.0343 51.999 7.0343V10.0343ZM28.999 10.0343H51.999V7.0343H28.999V10.0343Z" fill="#C679D4"/>
    <circle cx="61.999" cy="69.5343" r="4.5" transform="rotate(-180 61.999 69.5343)" stroke="#C679D4" stroke-width="3"/>
    <path d="M35.999 68.0343C35.1706 68.0343 34.499 68.7059 34.499 69.5343C34.499 70.3627 35.1706 71.0343 35.999 71.0343L35.999 68.0343ZM58.999 68.0343L35.999 68.0343L35.999 71.0343L58.999 71.0343L58.999 68.0343Z" fill="#C679D4"/>
    <circle cx="8.5858" cy="39.3731" r="4.5" transform="rotate(-60 8.5858 39.3731)" stroke="#C679D4" stroke-width="3"/>
    <path d="M22.885 17.6064C23.2992 16.889 23.0534 15.9716 22.3359 15.5574C21.6185 15.1432 20.7011 15.389 20.2869 16.1064L22.885 17.6064ZM11.385 37.525L22.885 17.6064L20.2869 16.1064L8.7869 36.025L11.385 37.525Z" fill="#C679D4"/>
    <circle cx="79.4132" cy="38.6962" r="4.5" transform="rotate(120 79.4132 38.6962)" stroke="#C679D4" stroke-width="3"/>
    <path d="M65.114 60.4628C64.6998 61.1802 64.9456 62.0976 65.6631 62.5118C66.3805 62.9261 67.2979 62.6802 67.7121 61.9628L65.114 60.4628ZM76.614 40.5442L65.114 60.4628L67.7121 61.9628L79.2121 42.0442L76.614 40.5442Z" fill="#C679D4"/>
    <circle cx="26.5858" cy="69.8731" r="4.5" transform="rotate(-120 26.5858 69.8731)" stroke="#C679D4" stroke-width="3"/>
    <path d="M14.885 46.6064C14.4708 45.889 13.5534 45.6432 12.8359 46.0574C12.1185 46.4716 11.8727 47.389 12.2869 48.1064L14.885 46.6064ZM26.385 66.525L14.885 46.6064L12.2869 48.1064L23.7869 68.025L26.385 66.525Z" fill="#C679D4"/>
    <circle cx="61.4132" cy="8.19615" r="4.5" transform="rotate(60 61.4132 8.19615)" stroke="#C679D4" stroke-width="3"/>
    <path d="M73.114 31.4628C73.5283 32.1802 74.4456 32.4261 75.1631 32.0118C75.8805 31.5976 76.1263 30.6802 75.7121 29.9628L73.114 31.4628ZM61.614 11.5442L73.114 31.4628L75.7121 29.9628L64.2121 10.0442L61.614 11.5442Z" fill="#C679D4"/>
    <path fill-rule="evenodd" clip-rule="evenodd" d="M47.676 39.1872C47.676 41.6172 45.5283 43.5928 42.8896 43.5928C40.2496 43.5928 38.1019 41.6172 38.1019 39.1872C38.1019 36.7572 40.2496 34.7816 42.8896 34.7816C45.5283 34.7816 47.676 36.7572 47.676 39.1872ZM50.426 39.1872C50.426 35.3625 47.0449 32.2504 42.8896 32.2504C38.733 32.2504 35.3519 35.3625 35.3519 39.1872C35.3519 43.0119 38.733 46.124 42.8896 46.124C47.0449 46.124 50.426 43.0119 50.426 39.1872ZM41.3991 50.8764C41.4376 50.2588 40.9853 49.707 40.3294 49.5703C39.052 49.3045 37.8393 48.84 36.7255 48.1933C36.1576 47.8617 35.4138 47.9566 34.9655 48.4211L34.2629 49.1463L32.0698 47.1276L32.8576 46.4822C33.3581 46.0696 33.4626 45.3849 33.1038 44.8622C32.4039 43.8408 31.902 42.7246 31.6133 41.5438C31.4648 40.9388 30.8213 40.5224 30.1943 40.5579L29.1396 40.6135V37.7609L30.1984 37.8165C30.8213 37.8457 31.4675 37.4356 31.6174 36.8319C31.9075 35.6549 32.4094 34.5411 33.112 33.5198C33.4709 32.9971 33.3664 32.3111 32.8659 31.8998L32.0698 31.2468L34.2629 29.2281L34.971 29.9584C35.4179 30.4216 36.1631 30.5152 36.7296 30.1874C37.8406 29.5433 39.052 29.0813 40.328 28.8168C40.9853 28.6801 41.4376 28.1283 41.3991 27.5094L41.34 26.5311H44.4393L44.3801 27.5107C44.3403 28.1283 44.7926 28.6814 45.4485 28.8181C46.7259 29.0838 47.9345 29.5445 49.0441 30.19C49.6093 30.5165 50.3559 30.4241 50.8041 29.9622L51.515 29.2281L53.7081 31.2468L52.9161 31.8973C52.4143 32.3086 52.3098 32.9946 52.6686 33.5185C53.3699 34.5399 53.8731 35.6536 54.1619 36.8319C54.3104 37.4356 54.9498 37.8457 55.5809 37.8165L56.6396 37.7609V40.6135L55.5836 40.5579C54.9498 40.5224 54.3131 40.9388 54.1646 41.5438C53.8759 42.7195 53.374 43.8358 52.6728 44.8597C52.3139 45.3836 52.4184 46.0683 52.9189 46.4796L53.7095 47.1276L51.5164 49.1463L50.8151 48.4236C50.3669 47.9591 49.6161 47.8668 49.0551 48.1958C47.9441 48.8425 46.7314 49.3045 45.4499 49.5715C44.7926 49.7082 44.3403 50.26 44.3801 50.8776L44.4393 51.8433H41.34L41.3991 50.8764ZM46.8964 53.9784C47.1549 53.724 47.2896 53.3835 47.2676 53.0368L47.1893 51.7598C47.9895 51.5282 48.7636 51.2333 49.5061 50.8751L50.4329 51.8306C50.6845 52.0901 51.0406 52.2432 51.4201 52.2534C51.8106 52.2837 52.1654 52.1293 52.4308 51.8825L56.6823 47.9693C56.949 47.7237 57.0961 47.3871 57.0851 47.039C57.0741 46.691 56.9078 46.3619 56.6259 46.1303L55.5823 45.2748C55.97 44.5914 56.2918 43.8788 56.5406 43.1435L57.9363 43.2182C58.3061 43.2384 58.6843 43.1131 58.9579 42.8739C59.2329 42.6347 59.3896 42.3019 59.3896 41.9538V36.4206C59.3896 36.0725 59.2329 35.7397 58.9579 35.5005C58.6843 35.2613 58.3075 35.1347 57.9363 35.1562L56.5379 35.2309C56.2876 34.4956 55.9673 33.7843 55.5795 33.1021L56.6259 32.2441C56.9078 32.0125 57.0741 31.6834 57.0851 31.3354C57.0961 30.9873 56.949 30.6507 56.6823 30.4051L52.4308 26.4919C52.1626 26.2451 51.8065 26.1109 51.4201 26.121C51.0406 26.1312 50.6845 26.2843 50.4329 26.5438L49.4951 27.5094C48.7554 27.155 47.9854 26.8602 47.1893 26.6298L47.2676 25.3376C47.2896 24.9896 47.1549 24.6491 46.895 24.396C46.6351 24.1429 46.2735 23.9999 45.8954 23.9999H39.8839C39.5058 23.9999 39.1441 24.1429 38.8843 24.396C38.6244 24.6491 38.4896 24.9896 38.5116 25.3376L38.5914 26.6286C37.7939 26.8576 37.0211 27.1525 36.28 27.5081L35.345 26.5438C35.0948 26.2843 34.7373 26.1312 34.3578 26.121C34.0016 26.1134 33.6139 26.2451 33.3472 26.4919L29.0956 30.4051C28.8289 30.6507 28.6831 30.9873 28.6928 31.3354C28.7038 31.6834 28.8701 32.0125 29.152 32.2441L30.2011 33.1034C29.8134 33.7856 29.4916 34.4968 29.2414 35.2309L27.8416 35.1562C27.4676 35.1335 27.0936 35.2613 26.82 35.5005C26.545 35.7397 26.3896 36.0725 26.3896 36.4206V41.9538C26.3896 42.3019 26.545 42.6347 26.82 42.8739C27.0936 43.1131 27.469 43.2397 27.8416 43.2182L29.2359 43.1435C29.4861 43.8801 29.8065 44.5926 30.1929 45.2773L29.152 46.1303C28.8701 46.3619 28.7038 46.691 28.6928 47.039C28.6831 47.3871 28.8289 47.7237 29.0956 47.9693L33.3472 51.8825C33.6139 52.1293 33.9975 52.2799 34.3578 52.2534C34.7373 52.2432 35.0948 52.0901 35.345 51.8306L36.2745 50.8726C37.017 51.2307 37.7925 51.5269 38.5914 51.7572L38.5116 53.0368C38.4896 53.3848 38.6244 53.7253 38.8843 53.9784C39.1441 54.2315 39.5058 54.3745 39.8839 54.3745H45.8954C46.2735 54.3745 46.6352 54.2315 46.8964 53.9784Z" fill="#232F3E"/>
</svg>

