<?xml version="1.0" encoding="utf-8"?>
<svg width="1442" height="574" viewBox="0 0 1442 574" fill="none" xmlns="http://www.w3.org/2000/svg" preserveAspectRatio="none">
    <path d="M0 0H1442V539L1082 546.5L753 473.5L588 399L403.5 363.5L190.5 396L2.14464e-05 499.5L0 0Z" fill="#7573D1"/>
    <path d="M1442 357V531.5H929L456.5 363.5L206.5 399L0.000389099 510.5L0 345.5C0 345.5 154.887 196 436 196C558.182 196 794.359 346.161 989 369C1242.18 398.708 1442 357 1442 357Z" fill="#C679D4" fill-opacity="0.24"/>
    <path d="M1442 432V526.5L956.5 525.514L433.5 366.5L202.5 406L0.000389099 510.5L0 420.5C0 420.5 154.887 271 436 271C558.182 271 794.359 421.161 989 444C1242.18 473.708 1442 432 1442 432Z" fill="#C679D4" fill-opacity="0.54"/>
    <path d="M1442 504V551C1442 551 1300.5 577.5 1129.5 572.5C988.772 568.385 925 561 776.5 504C648.627 454.917 523.5 382.5 406.5 390C156 395 0.000389099 539.5 0.000389099 539.5L0 492.5C0 492.5 154.887 343 436 343C558.182 343 794.359 493.161 989 516C1242.18 545.708 1442 504 1442 504Z" fill="#C679D4"/>
</svg>
