<?xml version="1.0" encoding="utf-8"?>
<svg width="89" height="79" viewBox="0 0 89 79" fill="none" xmlns="http://www.w3.org/2000/svg">
    <circle cx="26.499" cy="8.60364" r="4.5" stroke="#C679D4" stroke-width="3"/>
    <path d="M52.499 10.1036C53.3274 10.1036 53.999 9.43206 53.999 8.60364C53.999 7.77521 53.3274 7.10364 52.499 7.10364V10.1036ZM29.499 10.1036H52.499V7.10364H29.499V10.1036Z" fill="#C679D4"/>
    <circle cx="62.499" cy="69.6036" r="4.5" transform="rotate(-180 62.499 69.6036)" stroke="#C679D4" stroke-width="3"/>
    <path d="M36.499 68.1036C35.6706 68.1036 34.999 68.7752 34.999 69.6036C34.999 70.4321 35.6706 71.1036 36.499 71.1036L36.499 68.1036ZM59.499 68.1036L36.499 68.1036L36.499 71.1036L59.499 71.1036L59.499 68.1036Z" fill="#C679D4"/>
    <circle cx="9.0858" cy="39.4424" r="4.5" transform="rotate(-60 9.0858 39.4424)" stroke="#C679D4" stroke-width="3"/>
    <path d="M23.385 17.6757C23.7992 16.9583 23.5534 16.0409 22.8359 15.6267C22.1185 15.2125 21.2011 15.4583 20.7869 16.1757L23.385 17.6757ZM11.885 37.5943L23.385 17.6757L20.7869 16.1757L9.2869 36.0943L11.885 37.5943Z" fill="#C679D4"/>
    <circle cx="79.9132" cy="38.7655" r="4.5" transform="rotate(120 79.9132 38.7655)" stroke="#C679D4" stroke-width="3"/>
    <path d="M65.614 60.5321C65.1998 61.2496 65.4456 62.167 66.1631 62.5812C66.8805 62.9954 67.7979 62.7496 68.2121 62.0321L65.614 60.5321ZM77.114 40.6136L65.614 60.5321L68.2121 62.0321L79.7121 42.1136L77.114 40.6136Z" fill="#C679D4"/>
    <circle cx="27.0858" cy="69.9424" r="4.5" transform="rotate(-120 27.0858 69.9424)" stroke="#C679D4" stroke-width="3"/>
    <path d="M15.385 46.6757C14.9708 45.9583 14.0534 45.7125 13.3359 46.1267C12.6185 46.5409 12.3727 47.4583 12.7869 48.1757L15.385 46.6757ZM26.885 66.5943L15.385 46.6757L12.7869 48.1757L24.2869 68.0943L26.885 66.5943Z" fill="#C679D4"/>
    <circle cx="61.9132" cy="8.26548" r="4.5" transform="rotate(60 61.9132 8.26548)" stroke="#C679D4" stroke-width="3"/>
    <path d="M73.614 31.5321C74.0283 32.2496 74.9456 32.4954 75.6631 32.0812C76.3805 31.667 76.6263 30.7496 76.2121 30.0321L73.614 31.5321ZM62.114 11.6136L73.614 31.5321L76.2121 30.0321L64.7121 10.1136L62.114 11.6136Z" fill="#C679D4"/>
    <line x1="43.9294" y1="45.9169" x2="55.9294" y2="35.9169" stroke="#232F3E" stroke-width="3"/>
    <path d="M64.8896 45.0692C64.8896 34.5758 56.3831 26.0692 45.8896 26.0692C35.3962 26.0692 26.8896 34.5758 26.8896 45.0692" stroke="#232F3E" stroke-width="3"/>
</svg>
