<?xml version="1.0" encoding="utf-8"?>
<svg width="50" height="49" viewBox="0 0 50 49" fill="none" xmlns="http://www.w3.org/2000/svg">
    <path fill-rule="evenodd" clip-rule="evenodd" d="M24.9255 0C11.1423 0 0 11.2245 0 25.1107C0 36.2107 7.13928 45.6066 17.0434 48.9321C18.2816 49.1821 18.7352 48.3918 18.7352 47.727C18.7352 47.1449 18.6944 45.1495 18.6944 43.0704C11.7607 44.5673 10.3168 40.077 10.3168 40.077C9.20255 37.1668 7.55153 36.4189 7.55153 36.4189C5.28214 34.8806 7.71684 34.8806 7.71684 34.8806C10.2342 35.0469 11.5551 37.4582 11.5551 37.4582C13.7832 41.2827 17.3735 40.202 18.8179 39.5367C19.024 37.9153 19.6847 36.7929 20.3862 36.1694C14.8561 35.5872 9.03776 33.4255 9.03776 23.7801C9.03776 21.0362 10.0276 18.7913 11.5959 17.0454C11.3485 16.4219 10.4816 13.8439 11.8439 10.3934C11.8439 10.3934 13.9485 9.72806 18.6939 12.9709C20.7256 12.4213 22.8208 12.1416 24.9255 12.1393C27.0301 12.1393 29.1755 12.4306 31.1566 12.9709C35.9025 9.72806 38.0071 10.3934 38.0071 10.3934C39.3694 13.8439 38.502 16.4219 38.2546 17.0454C39.8643 18.7913 40.8133 21.0362 40.8133 23.7801C40.8133 33.4255 34.9949 35.5454 29.4235 36.1694C30.3316 36.9592 31.1153 38.4556 31.1153 40.8255C31.1153 44.1929 31.0745 46.8954 31.0745 47.7265C31.0745 48.3918 31.5286 49.1821 32.7663 48.9327C42.6704 45.6061 49.8097 36.2107 49.8097 25.1107C49.8505 11.2245 38.6673 0 24.9255 0Z" fill="black"/>
</svg>
