<?xml version="1.0" encoding="utf-8"?>
<svg width="88" height="79" viewBox="0 0 88 79" fill="none" xmlns="http://www.w3.org/2000/svg">
    <circle cx="25.9995" cy="8.5343" r="4.5" stroke="#C679D4" stroke-width="3"/>
    <path d="M51.9995 10.0343C52.8279 10.0343 53.4995 9.36273 53.4995 8.5343C53.4995 7.70587 52.8279 7.0343 51.9995 7.0343V10.0343ZM28.9995 10.0343H51.9995V7.0343H28.9995V10.0343Z" fill="#C679D4"/>
    <circle cx="61.9995" cy="69.5343" r="4.5" transform="rotate(-180 61.9995 69.5343)" stroke="#C679D4" stroke-width="3"/>
    <path d="M35.9995 68.0343C35.1711 68.0343 34.4995 68.7059 34.4995 69.5343C34.4995 70.3627 35.1711 71.0343 35.9995 71.0343L35.9995 68.0343ZM58.9995 68.0343L35.9995 68.0343L35.9995 71.0343L58.9995 71.0343L58.9995 68.0343Z" fill="#C679D4"/>
    <circle cx="8.58629" cy="39.3731" r="4.5" transform="rotate(-60 8.58629 39.3731)" stroke="#C679D4" stroke-width="3"/>
    <path d="M22.8855 17.6064C23.2997 16.889 23.0539 15.9716 22.3364 15.5574C21.619 15.1432 20.7016 15.389 20.2874 16.1064L22.8855 17.6064ZM11.3855 37.525L22.8855 17.6064L20.2874 16.1064L8.78739 36.025L11.3855 37.525Z" fill="#C679D4"/>
    <circle cx="79.4137" cy="38.6962" r="4.5" transform="rotate(120 79.4137 38.6962)" stroke="#C679D4" stroke-width="3"/>
    <path d="M65.1145 60.4628C64.7003 61.1802 64.9461 62.0976 65.6636 62.5118C66.381 62.9261 67.2984 62.6802 67.7126 61.9628L65.1145 60.4628ZM76.6145 40.5442L65.1145 60.4628L67.7126 61.9628L79.2126 42.0442L76.6145 40.5442Z" fill="#C679D4"/>
    <circle cx="26.5863" cy="69.8731" r="4.5" transform="rotate(-120 26.5863 69.8731)" stroke="#C679D4" stroke-width="3"/>
    <path d="M14.8855 46.6064C14.4712 45.889 13.5539 45.6432 12.8364 46.0574C12.119 46.4716 11.8732 47.389 12.2874 48.1064L14.8855 46.6064ZM26.3855 66.525L14.8855 46.6064L12.2874 48.1064L23.7874 68.025L26.3855 66.525Z" fill="#C679D4"/>
    <circle cx="61.4137" cy="8.19615" r="4.5" transform="rotate(60 61.4137 8.19615)" stroke="#C679D4" stroke-width="3"/>
    <path d="M73.1145 31.4628C73.5287 32.1802 74.4461 32.4261 75.1636 32.0118C75.881 31.5976 76.1268 30.6802 75.7126 29.9628L73.1145 31.4628ZM61.6145 11.5442L73.1145 31.4628L75.7126 29.9628L64.2126 10.0442L61.6145 11.5442Z" fill="#C679D4"/>
    <path fill-rule="evenodd" clip-rule="evenodd" d="M47.6765 39.1872C47.6765 41.6172 45.5288 43.5928 42.8901 43.5928C40.2501 43.5928 38.1024 41.6172 38.1024 39.1872C38.1024 36.7572 40.2501 34.7816 42.8901 34.7816C45.5288 34.7816 47.6765 36.7572 47.6765 39.1872ZM50.4265 39.1872C50.4265 35.3625 47.0454 32.2504 42.8901 32.2504C38.7335 32.2504 35.3524 35.3625 35.3524 39.1872C35.3524 43.0119 38.7335 46.124 42.8901 46.124C47.0454 46.124 50.4265 43.0119 50.4265 39.1872ZM41.3996 50.8764C41.4381 50.2588 40.9858 49.707 40.3299 49.5703C39.0525 49.3045 37.8398 48.84 36.726 48.1933C36.1581 47.8617 35.4143 47.9566 34.966 48.4211L34.2634 49.1463L32.0703 47.1276L32.8581 46.4822C33.3586 46.0696 33.4631 45.3849 33.1043 44.8622C32.4044 43.8408 31.9025 42.7246 31.6138 41.5438C31.4653 40.9388 30.8218 40.5224 30.1948 40.5579L29.1401 40.6135V37.7609L30.1989 37.8165C30.8218 37.8457 31.468 37.4356 31.6179 36.8319C31.908 35.6549 32.4099 34.5411 33.1125 33.5198C33.4714 32.9971 33.3669 32.3111 32.8664 31.8998L32.0703 31.2468L34.2634 29.2281L34.9715 29.9584C35.4184 30.4216 36.1636 30.5152 36.7301 30.1874C37.8411 29.5433 39.0525 29.0813 40.3285 28.8168C40.9858 28.6801 41.4381 28.1283 41.3996 27.5094L41.3405 26.5311H44.4398L44.3806 27.5107C44.3408 28.1283 44.7931 28.6814 45.449 28.8181C46.7264 29.0838 47.935 29.5445 49.0446 30.19C49.6098 30.5165 50.3564 30.4241 50.8046 29.9622L51.5155 29.2281L53.7086 31.2468L52.9166 31.8973C52.4148 32.3086 52.3103 32.9946 52.6691 33.5185C53.3704 34.5399 53.8736 35.6536 54.1624 36.8319C54.3109 37.4356 54.9503 37.8457 55.5814 37.8165L56.6401 37.7609V40.6135L55.5841 40.5579C54.9503 40.5224 54.3136 40.9388 54.1651 41.5438C53.8764 42.7195 53.3745 43.8358 52.6733 44.8597C52.3144 45.3836 52.4189 46.0683 52.9194 46.4796L53.71 47.1276L51.5169 49.1463L50.8156 48.4236C50.3674 47.9591 49.6166 47.8668 49.0556 48.1958C47.9446 48.8425 46.7319 49.3045 45.4504 49.5715C44.7931 49.7082 44.3408 50.26 44.3806 50.8776L44.4398 51.8433H41.3405L41.3996 50.8764ZM46.8969 53.9784C47.1554 53.724 47.2901 53.3835 47.2681 53.0368L47.1898 51.7598C47.99 51.5282 48.7641 51.2333 49.5066 50.8751L50.4334 51.8306C50.685 52.0901 51.0411 52.2432 51.4206 52.2534C51.8111 52.2837 52.1659 52.1293 52.4313 51.8825L56.6828 47.9693C56.9495 47.7237 57.0966 47.3871 57.0856 47.039C57.0746 46.691 56.9083 46.3619 56.6264 46.1303L55.5828 45.2748C55.9705 44.5914 56.2923 43.8788 56.5411 43.1435L57.9368 43.2182C58.3066 43.2384 58.6848 43.1131 58.9584 42.8739C59.2334 42.6347 59.3901 42.3019 59.3901 41.9538V36.4206C59.3901 36.0725 59.2334 35.7397 58.9584 35.5005C58.6848 35.2613 58.308 35.1347 57.9368 35.1562L56.5384 35.2309C56.2881 34.4956 55.9678 33.7843 55.58 33.1021L56.6264 32.2441C56.9083 32.0125 57.0746 31.6834 57.0856 31.3354C57.0966 30.9873 56.9495 30.6507 56.6828 30.4051L52.4313 26.4919C52.1631 26.2451 51.807 26.1109 51.4206 26.121C51.0411 26.1312 50.685 26.2843 50.4334 26.5438L49.4956 27.5094C48.7559 27.155 47.9859 26.8602 47.1898 26.6298L47.2681 25.3376C47.2901 24.9896 47.1554 24.6491 46.8955 24.396C46.6356 24.1429 46.274 23.9999 45.8959 23.9999H39.8844C39.5063 23.9999 39.1446 24.1429 38.8848 24.396C38.6249 24.6491 38.4901 24.9896 38.5121 25.3376L38.5919 26.6286C37.7944 26.8576 37.0216 27.1525 36.2805 27.5081L35.3455 26.5438C35.0953 26.2843 34.7378 26.1312 34.3583 26.121C34.0021 26.1134 33.6144 26.2451 33.3476 26.4919L29.0961 30.4051C28.8294 30.6507 28.6836 30.9873 28.6933 31.3354C28.7043 31.6834 28.8706 32.0125 29.1525 32.2441L30.2016 33.1034C29.8139 33.7856 29.4921 34.4968 29.2419 35.2309L27.8421 35.1562C27.4681 35.1335 27.0941 35.2613 26.8205 35.5005C26.5455 35.7397 26.3901 36.0725 26.3901 36.4206V41.9538C26.3901 42.3019 26.5455 42.6347 26.8205 42.8739C27.0941 43.1131 27.4695 43.2397 27.8421 43.2182L29.2364 43.1435C29.4866 43.8801 29.807 44.5926 30.1934 45.2773L29.1525 46.1303C28.8706 46.3619 28.7043 46.691 28.6933 47.039C28.6836 47.3871 28.8294 47.7237 29.0961 47.9693L33.3476 51.8825C33.6144 52.1293 33.998 52.2799 34.3583 52.2534C34.7378 52.2432 35.0953 52.0901 35.3455 51.8306L36.275 50.8726C37.0175 51.2307 37.793 51.5269 38.5919 51.7572L38.5121 53.0368C38.4901 53.3848 38.6249 53.7253 38.8848 53.9784C39.1446 54.2315 39.5063 54.3745 39.8844 54.3745H45.8959C46.274 54.3745 46.6356 54.2315 46.8969 53.9784Z" fill="white"/>
</svg>