<?xml version="1.0" encoding="utf-8"?>
<svg width="50" height="50" viewBox="0 0 50 50" fill="none" xmlns="http://www.w3.org/2000/svg">
    <path fill-rule="evenodd" clip-rule="evenodd" d="M25 50C38.8071 50 50 38.8071 50 25C50 11.1929 38.8071 0 25 0C11.1929 0 0 11.1929 0 25C0 38.8071 11.1929 50 25 50ZM25 42.3469C34.8622 42.3469 42.8571 34.352 42.8571 24.4898C42.8571 14.6276 34.8622 6.63265 25 6.63265C15.1378 6.63265 7.14286 14.6276 7.14286 24.4898C7.14286 34.352 15.1378 42.3469 25 42.3469Z" fill="white"/>
    <path d="M14.6301 8.31391C10.8442 8.31391 7.77515 11.3642 7.77515 15.1269L6.63266 25.5412L8.98258 35.5339C8.98258 39.2967 12.0516 42.347 15.8375 42.347H35.1946C38.9805 42.347 42.0496 39.2967 42.0496 35.5339L43.8776 15.549C43.8776 11.7863 40.8085 8.73596 37.0226 8.73596L25.598 5.10205L14.6301 8.31391ZM13.4735 13.1807H21.2465L26.7664 20.9765L33.4646 13.1807H35.9128L27.872 22.5372L37.7872 36.5396H30.016L23.6106 27.4949L15.8375 36.5396H13.3893L22.505 25.9342L13.4735 13.1807ZM17.2223 15.1272L31.0374 34.5931H34.0383L20.2232 15.1272H17.2223Z" fill="white"/>
</svg>
