<?xml version="1.0" encoding="utf-8"?>
<svg width="88" height="79" viewBox="0 0 88 79" fill="none" xmlns="http://www.w3.org/2000/svg">
    <circle cx="25.999" cy="8.5343" r="4.5" stroke="#C679D4" stroke-width="3"/>
    <path d="M51.999 10.0343C52.8274 10.0343 53.499 9.36273 53.499 8.5343C53.499 7.70587 52.8274 7.0343 51.999 7.0343V10.0343ZM28.999 10.0343H51.999V7.0343H28.999V10.0343Z" fill="#C679D4"/>
    <circle cx="61.999" cy="69.5343" r="4.5" transform="rotate(-180 61.999 69.5343)" stroke="#C679D4" stroke-width="3"/>
    <path d="M35.999 68.0343C35.1706 68.0343 34.499 68.7059 34.499 69.5343C34.499 70.3627 35.1706 71.0343 35.999 71.0343L35.999 68.0343ZM58.999 68.0343L35.999 68.0343L35.999 71.0343L58.999 71.0343L58.999 68.0343Z" fill="#C679D4"/>
    <circle cx="8.5858" cy="39.3731" r="4.5" transform="rotate(-60 8.5858 39.3731)" stroke="#C679D4" stroke-width="3"/>
    <path d="M22.885 17.6064C23.2992 16.8889 23.0534 15.9716 22.3359 15.5573C21.6185 15.1431 20.7011 15.3889 20.2869 16.1064L22.885 17.6064ZM11.385 37.525L22.885 17.6064L20.2869 16.1064L8.7869 36.025L11.385 37.525Z" fill="#C679D4"/>
    <circle cx="79.4132" cy="38.6962" r="4.5" transform="rotate(120 79.4132 38.6962)" stroke="#C679D4" stroke-width="3"/>
    <path d="M65.114 60.4628C64.6998 61.1803 64.9456 62.0977 65.6631 62.5119C66.3805 62.9261 67.2979 62.6803 67.7121 61.9628L65.114 60.4628ZM76.614 40.5443L65.114 60.4628L67.7121 61.9628L79.2121 42.0443L76.614 40.5443Z" fill="#C679D4"/>
    <circle cx="26.5858" cy="69.8731" r="4.5" transform="rotate(-120 26.5858 69.8731)" stroke="#C679D4" stroke-width="3"/>
    <path d="M14.885 46.6064C14.4708 45.8889 13.5534 45.6431 12.8359 46.0573C12.1185 46.4716 11.8727 47.3889 12.2869 48.1064L14.885 46.6064ZM26.385 66.525L14.885 46.6064L12.2869 48.1064L23.7869 68.025L26.385 66.525Z" fill="#C679D4"/>
    <circle cx="61.4132" cy="8.19615" r="4.5" transform="rotate(60 61.4132 8.19615)" stroke="#C679D4" stroke-width="3"/>
    <path d="M73.114 31.4628C73.5283 32.1803 74.4456 32.4261 75.1631 32.0119C75.8805 31.5977 76.1263 30.6803 75.7121 29.9628L73.114 31.4628ZM61.614 11.5443L73.114 31.4628L75.7121 29.9628L64.2121 10.0443L61.614 11.5443Z" fill="#C679D4"/>
    <path d="M55.196 48.3779C55.196 48.6524 55.0507 49.0156 54.5641 49.447C54.0785 49.8775 53.3273 50.3041 52.3262 50.6795C50.3301 51.428 47.5155 51.9084 44.3648 51.9084C41.2141 51.9084 38.3995 51.428 36.4034 50.6795C35.4022 50.3041 34.6511 49.8775 34.1655 49.447C33.6789 49.0156 33.5336 48.6524 33.5336 48.3779C33.5336 48.1035 33.6789 47.7403 34.1655 47.3089C34.6511 46.8784 35.4022 46.4518 36.4034 46.0764C38.3995 45.3279 41.2141 44.8475 44.3648 44.8475C47.5155 44.8475 50.3301 45.3279 52.3262 46.0764C53.3273 46.4518 54.0785 46.8784 54.5641 47.3089C55.0507 47.7403 55.196 48.1035 55.196 48.3779Z" fill="#F2F3F3" stroke="#232F3E" stroke-width="1.7"/>
    <rect x="33.5336" y="30.976" width="21.6624" height="16.9169" fill="#F2F3F3" stroke="#232F3E" stroke-width="1.7"/>
    <path d="M55.196 30.1261C55.196 30.4005 55.0507 30.7637 54.5641 31.1951C54.0785 31.6256 53.3273 32.0522 52.3262 32.4276C50.3301 33.1761 47.5155 33.6565 44.3648 33.6565C41.2141 33.6565 38.3995 33.1761 36.4034 32.4276C35.4022 32.0522 34.6511 31.6256 34.1655 31.1951C33.6789 30.7637 33.5336 30.4005 33.5336 30.1261C33.5336 29.8516 33.6789 29.4884 34.1655 29.057C34.6511 28.6265 35.4022 28.1999 36.4034 27.8245C38.3995 27.076 41.2141 26.5956 44.3648 26.5956C47.5155 26.5956 50.3301 27.076 52.3262 27.8245C53.3273 28.1999 54.0785 28.6265 54.5641 29.057C55.0507 29.4884 55.196 29.8516 55.196 30.1261Z" fill="#F2F3F3" stroke="#232F3E" stroke-width="1.7"/>
    <mask id="path-16-inside-1_522_10977" fill="white">
        <path d="M56.046 35.9667C56.046 36.542 55.7438 37.1116 55.1568 37.6431C54.5698 38.1745 53.7093 38.6574 52.6246 39.0642C51.5399 39.4709 50.2522 39.7936 48.835 40.0137C47.4178 40.2339 45.8988 40.3472 44.3648 40.3472C42.8308 40.3472 41.3118 40.2339 39.8946 40.0137C38.4774 39.7936 37.1896 39.4709 36.1049 39.0642C35.0202 38.6574 34.1598 38.1745 33.5728 37.6431C32.9857 37.1116 32.6836 36.542 32.6836 35.9667H34.1292C34.1292 36.4708 34.5419 36.5962 35.0563 37.0618C35.6039 37.4269 36.1767 37.5944 37.1271 37.9508C38.0776 38.3072 39.2059 38.5899 40.4478 38.7828C41.6896 38.9757 43.0206 39.075 44.3648 39.075C45.7089 39.075 47.0399 38.9757 48.2818 38.7828C49.5236 38.5899 50.652 38.3072 51.6024 37.9508C52.5529 37.5944 53.3069 37.1712 53.8212 36.7055C54.3356 36.2398 54.6004 36.4708 54.6004 35.9667H56.046Z"/>
    </mask>
    <path d="M56.046 35.9667C56.046 36.542 55.7438 37.1116 55.1568 37.6431C54.5698 38.1745 53.7093 38.6574 52.6246 39.0642C51.5399 39.4709 50.2522 39.7936 48.835 40.0137C47.4178 40.2339 45.8988 40.3472 44.3648 40.3472C42.8308 40.3472 41.3118 40.2339 39.8946 40.0137C38.4774 39.7936 37.1896 39.4709 36.1049 39.0642C35.0202 38.6574 34.1598 38.1745 33.5728 37.6431C32.9857 37.1116 32.6836 36.542 32.6836 35.9667H34.1292C34.1292 36.4708 34.5419 36.5962 35.0563 37.0618C35.6039 37.4269 36.1767 37.5944 37.1271 37.9508C38.0776 38.3072 39.2059 38.5899 40.4478 38.7828C41.6896 38.9757 43.0206 39.075 44.3648 39.075C45.7089 39.075 47.0399 38.9757 48.2818 38.7828C49.5236 38.5899 50.652 38.3072 51.6024 37.9508C52.5529 37.5944 53.3069 37.1712 53.8212 36.7055C54.3356 36.2398 54.6004 36.4708 54.6004 35.9667H56.046Z" fill="#D9D9D9"/>
    <path d="M56.046 35.9667H57.746V34.2667H56.046V35.9667ZM32.6836 35.9667V34.2667H30.9836L30.9836 35.9667L32.6836 35.9667ZM34.1292 35.9667L35.8292 35.9667L35.8292 34.2667H34.1292V35.9667ZM35.0563 37.0618L33.9154 38.3221L34.0087 38.4065L34.1133 38.4763L35.0563 37.0618ZM44.3648 39.075V37.375V39.075ZM54.6004 35.9667V34.2667H52.9004V35.9667H54.6004ZM54.346 35.9667C54.346 35.9017 54.386 36.0477 54.0158 36.3828L56.2977 38.9033C57.1017 38.1755 57.746 37.1823 57.746 35.9667H54.346ZM54.0158 36.3828C53.6432 36.7202 52.9965 37.1091 52.0277 37.4724L53.2215 40.6559C54.4222 40.2057 55.4963 39.6289 56.2977 38.9033L54.0158 36.3828ZM52.0277 37.4724C51.0738 37.8301 49.9025 38.1275 48.574 38.3339L49.0959 41.6936C50.6019 41.4597 52.0061 41.1117 53.2215 40.6559L52.0277 37.4724ZM48.574 38.3339C47.2489 38.5397 45.8174 38.6472 44.3648 38.6472V42.0472C45.9801 42.0472 47.5866 41.928 49.0959 41.6936L48.574 38.3339ZM44.3648 38.6472C42.9122 38.6472 41.4807 38.5397 40.1555 38.3339L39.6337 41.6936C41.1429 41.928 42.7494 42.0472 44.3648 42.0472V38.6472ZM40.1555 38.3339C38.8271 38.1275 37.6558 37.8301 36.7018 37.4724L35.508 40.6559C36.7235 41.1117 38.1276 41.4597 39.6337 41.6936L40.1555 38.3339ZM36.7018 37.4724C35.7331 37.1091 35.0864 36.7202 34.7137 36.3828L32.4318 38.9033C33.2332 39.6289 34.3074 40.2057 35.508 40.6559L36.7018 37.4724ZM34.7137 36.3828C34.3436 36.0477 34.3836 35.9017 34.3836 35.9667L30.9836 35.9667C30.9836 37.1823 31.6279 38.1755 32.4318 38.9033L34.7137 36.3828ZM32.6836 37.6667H34.1292V34.2667H32.6836V37.6667ZM32.4292 35.9667C32.4292 36.3418 32.5101 36.7166 32.6933 37.069C32.8666 37.4024 33.0901 37.6352 33.2551 37.7855C33.4057 37.9227 33.5776 38.051 33.6602 38.1143C33.7651 38.1947 33.8411 38.2549 33.9154 38.3221L36.1973 35.8016C36.0143 35.636 35.8459 35.5058 35.7287 35.416C35.6646 35.3668 35.6273 35.3385 35.5907 35.3096C35.5746 35.2969 35.5632 35.2876 35.5552 35.2809C35.5472 35.2742 35.5441 35.2714 35.5446 35.2719C35.5447 35.272 35.5661 35.2913 35.5965 35.328C35.6282 35.3663 35.6701 35.424 35.7101 35.501C35.7509 35.5795 35.7828 35.6646 35.8033 35.7524C35.8235 35.8389 35.8292 35.9126 35.8292 35.9667L32.4292 35.9667ZM34.1133 38.4763C34.8742 38.9836 35.7374 39.2452 36.5302 39.5425L37.724 36.359C36.6159 35.9435 36.3336 35.8702 35.9993 35.6474L34.1133 38.4763ZM36.5302 39.5425C37.6114 39.948 38.8562 40.256 40.1869 40.4627L40.7087 37.103C39.5557 36.9239 38.5437 36.6664 37.724 36.359L36.5302 39.5425ZM40.1869 40.4627C41.5208 40.6699 42.9393 40.775 44.3648 40.775V37.375C43.102 37.375 41.8585 37.2816 40.7087 37.103L40.1869 40.4627ZM44.3648 40.775C45.7903 40.775 47.2088 40.6699 48.5427 40.4627L48.0208 37.103C46.8711 37.2816 45.6276 37.375 44.3648 37.375V40.775ZM48.5427 40.4627C49.8734 40.256 51.1181 39.948 52.1994 39.5425L51.0055 36.359C50.1858 36.6664 49.1739 36.9239 48.0208 37.103L48.5427 40.4627ZM52.1994 39.5425C53.2657 39.1426 54.2334 38.6256 54.9622 37.9658L52.6803 35.4453C52.3803 35.7169 51.8401 36.0461 51.0055 36.359L52.1994 39.5425ZM54.9622 37.9658C54.988 37.9424 54.8654 38.0164 55.1474 37.8792C55.315 37.7977 55.7326 37.5791 56.0206 37.0839C56.2789 36.6396 56.3004 36.1979 56.3004 35.9667H52.9004C52.9004 35.9618 52.9001 35.8989 52.9186 35.8028C52.9383 35.7006 52.982 35.5456 53.0814 35.3748C53.1851 35.1964 53.315 35.0599 53.4401 34.9618C53.5514 34.8744 53.6442 34.8295 53.66 34.8218C53.6702 34.8168 53.674 34.8153 53.6617 34.8208C53.6559 34.8234 53.6496 34.8262 53.6391 34.8308C53.6295 34.835 53.6167 34.8406 53.6031 34.8467C53.5469 34.8717 53.4609 34.9108 53.3612 34.9638C53.1512 35.0757 52.9212 35.2272 52.6803 35.4453L54.9622 37.9658ZM54.6004 37.6667H56.046V34.2667H54.6004V37.6667Z" fill="#232F3E" mask="url(#path-16-inside-1_522_10977)"/>
    <mask id="path-18-inside-2_522_10977" fill="white">
        <path d="M56.046 42.5373C56.046 43.1125 55.7438 43.6822 55.1568 44.2136C54.5698 44.7451 53.7093 45.228 52.6246 45.6347C51.5399 46.0415 50.2522 46.3642 48.835 46.5843C47.4178 46.8044 45.8988 46.9177 44.3648 46.9177C42.8308 46.9177 41.3118 46.8044 39.8946 46.5843C38.4774 46.3642 37.1896 46.0415 36.1049 45.6347C35.0202 45.228 34.1598 44.7451 33.5728 44.2136C32.9857 43.6822 32.6836 43.1125 32.6836 42.5373H34.1292C34.1292 43.0414 34.5419 43.1667 35.0563 43.6324C35.6039 43.9974 36.1767 44.1649 37.1271 44.5213C38.0776 44.8778 39.2059 45.1605 40.4478 45.3534C41.6896 45.5463 43.0206 45.6456 44.3648 45.6456C45.7089 45.6456 47.0399 45.5463 48.2818 45.3534C49.5236 45.1605 50.652 44.8778 51.6024 44.5213C52.5529 44.1649 53.3069 43.7418 53.8212 43.2761C54.3356 42.8104 54.6004 43.0414 54.6004 42.5373H56.046Z"/>
    </mask>
    <path d="M56.046 42.5373C56.046 43.1125 55.7438 43.6822 55.1568 44.2136C54.5698 44.7451 53.7093 45.228 52.6246 45.6347C51.5399 46.0415 50.2522 46.3642 48.835 46.5843C47.4178 46.8044 45.8988 46.9177 44.3648 46.9177C42.8308 46.9177 41.3118 46.8044 39.8946 46.5843C38.4774 46.3642 37.1896 46.0415 36.1049 45.6347C35.0202 45.228 34.1598 44.7451 33.5728 44.2136C32.9857 43.6822 32.6836 43.1125 32.6836 42.5373H34.1292C34.1292 43.0414 34.5419 43.1667 35.0563 43.6324C35.6039 43.9974 36.1767 44.1649 37.1271 44.5213C38.0776 44.8778 39.2059 45.1605 40.4478 45.3534C41.6896 45.5463 43.0206 45.6456 44.3648 45.6456C45.7089 45.6456 47.0399 45.5463 48.2818 45.3534C49.5236 45.1605 50.652 44.8778 51.6024 44.5213C52.5529 44.1649 53.3069 43.7418 53.8212 43.2761C54.3356 42.8104 54.6004 43.0414 54.6004 42.5373H56.046Z" fill="#D9D9D9"/>
    <path d="M56.046 42.5373H57.746V40.8373H56.046V42.5373ZM32.6836 42.5373V40.8373H30.9836L30.9836 42.5373L32.6836 42.5373ZM34.1292 42.5373L35.8292 42.5373L35.8292 40.8373H34.1292V42.5373ZM35.0563 43.6324L33.9154 44.8927L34.0087 44.9771L34.1133 45.0469L35.0563 43.6324ZM44.3648 45.6456V43.9456V45.6456ZM54.6004 42.5373V40.8373H52.9004V42.5373H54.6004ZM54.346 42.5373C54.346 42.4722 54.386 42.6183 54.0158 42.9534L56.2977 45.4739C57.1017 44.7461 57.746 43.7528 57.746 42.5373H54.346ZM54.0158 42.9534C53.6432 43.2907 52.9965 43.6797 52.0277 44.043L53.2215 47.2265C54.4222 46.7763 55.4963 46.1994 56.2977 45.4739L54.0158 42.9534ZM52.0277 44.043C51.0738 44.4007 49.9025 44.6981 48.574 44.9044L49.0959 48.2642C50.6019 48.0302 52.0061 47.6823 53.2215 47.2265L52.0277 44.043ZM48.574 44.9044C47.2489 45.1103 45.8174 45.2177 44.3648 45.2177V48.6177C45.9801 48.6177 47.5866 48.4986 49.0959 48.2642L48.574 44.9044ZM44.3648 45.2177C42.9122 45.2177 41.4807 45.1103 40.1555 44.9044L39.6337 48.2642C41.1429 48.4986 42.7494 48.6177 44.3648 48.6177V45.2177ZM40.1555 44.9044C38.8271 44.6981 37.6558 44.4007 36.7018 44.043L35.508 47.2265C36.7235 47.6823 38.1276 48.0302 39.6337 48.2642L40.1555 44.9044ZM36.7018 44.043C35.7331 43.6797 35.0864 43.2907 34.7137 42.9534L32.4318 45.4739C33.2332 46.1994 34.3074 46.7763 35.508 47.2265L36.7018 44.043ZM34.7137 42.9534C34.3436 42.6183 34.3836 42.4722 34.3836 42.5373L30.9836 42.5373C30.9836 43.7528 31.6279 44.7461 32.4318 45.4739L34.7137 42.9534ZM32.6836 44.2373H34.1292V40.8373H32.6836V44.2373ZM32.4292 42.5373C32.4292 42.9124 32.5101 43.2872 32.6933 43.6396C32.8666 43.973 33.0901 44.2058 33.2551 44.356C33.4057 44.4932 33.5776 44.6216 33.6602 44.6849C33.7651 44.7653 33.8411 44.8254 33.9154 44.8927L36.1973 42.3721C36.0143 42.2065 35.8459 42.0764 35.7287 41.9865C35.6646 41.9373 35.6273 41.909 35.5907 41.8801C35.5746 41.8674 35.5632 41.8582 35.5552 41.8515C35.5472 41.8448 35.5441 41.842 35.5446 41.8424C35.5447 41.8425 35.5661 41.8619 35.5965 41.8985C35.6282 41.9369 35.6701 41.9946 35.7101 42.0715C35.7509 42.15 35.7828 42.2352 35.8033 42.323C35.8235 42.4095 35.8292 42.4832 35.8292 42.5373L32.4292 42.5373ZM34.1133 45.0469C34.8742 45.5541 35.7374 45.8158 36.5302 46.1131L37.724 42.9296C36.6159 42.514 36.3336 42.4407 35.9993 42.2179L34.1133 45.0469ZM36.5302 46.1131C37.6114 46.5186 38.8562 46.8266 40.1869 47.0332L40.7087 43.6735C39.5557 43.4944 38.5437 43.237 37.724 42.9296L36.5302 46.1131ZM40.1869 47.0332C41.5208 47.2404 42.9393 47.3456 44.3648 47.3456V43.9456C43.102 43.9456 41.8585 43.8521 40.7087 43.6735L40.1869 47.0332ZM44.3648 47.3456C45.7903 47.3456 47.2088 47.2404 48.5427 47.0332L48.0208 43.6735C46.8711 43.8521 45.6276 43.9456 44.3648 43.9456V47.3456ZM48.5427 47.0332C49.8734 46.8266 51.1181 46.5186 52.1994 46.1131L51.0055 42.9296C50.1858 43.237 49.1739 43.4944 48.0208 43.6735L48.5427 47.0332ZM52.1994 46.1131C53.2657 45.7132 54.2334 45.1961 54.9622 44.5363L52.6803 42.0158C52.3803 42.2875 51.8401 42.6166 51.0055 42.9296L52.1994 46.1131ZM54.9622 44.5363C54.988 44.513 54.8654 44.587 55.1474 44.4498C55.315 44.3682 55.7326 44.1496 56.0206 43.6544C56.2789 43.2101 56.3004 42.7685 56.3004 42.5373H52.9004C52.9004 42.5324 52.9001 42.4695 52.9186 42.3734C52.9383 42.2712 52.982 42.1162 53.0814 41.9454C53.1851 41.767 53.315 41.6305 53.4401 41.5323C53.5514 41.445 53.6442 41.4001 53.66 41.3924C53.6702 41.3874 53.674 41.3859 53.6617 41.3913C53.6559 41.3939 53.6496 41.3967 53.6391 41.4014C53.6295 41.4055 53.6167 41.4112 53.6031 41.4172C53.5469 41.4422 53.4609 41.4814 53.3612 41.5344C53.1512 41.6462 52.9212 41.7977 52.6803 42.0158L54.9622 44.5363ZM54.6004 44.2373H56.046V40.8373H54.6004V44.2373Z" fill="#232F3E" mask="url(#path-18-inside-2_522_10977)"/>
    <path d="M34.679 48.7647C34.5004 48.3235 34.3806 47.6618 34.3809 47H54.3331C54.3331 47.8824 54.3 48.5 54 48.8C47.5714 48.9471 34.8597 49.2111 34.679 48.7647Z" fill="#F2F3F3"/>
    <path d="M56.046 21L48.546 16.6699L48.546 25.3301L56.046 21ZM32.6836 21.75L49.296 21.75L49.296 20.25L32.6836 20.25L32.6836 21.75Z" fill="#232F3E"/>
    <path d="M31.9527 57.1387L39.4527 61.4688V52.8085L31.9527 57.1387ZM54.585 56.3887H38.7027V57.8887H54.585V56.3887Z" fill="#232F3E"/>
</svg>


