<?xml version="1.0" encoding="utf-8"?>
<svg width="88" height="79" viewBox="0 0 88 79" fill="none" xmlns="http://www.w3.org/2000/svg">
    <circle cx="25.9995" cy="8.53442" r="4.5" stroke="#C679D4" stroke-width="3"/>
    <path d="M51.9995 10.0344C52.8279 10.0344 53.4995 9.36285 53.4995 8.53442C53.4995 7.706 52.8279 7.03442 51.9995 7.03442V10.0344ZM28.9995 10.0344H51.9995V7.03442H28.9995V10.0344Z" fill="#C679D4"/>
    <circle cx="61.9995" cy="69.5344" r="4.5" transform="rotate(-180 61.9995 69.5344)" stroke="#C679D4" stroke-width="3"/>
    <path d="M35.9995 68.0344C35.1711 68.0344 34.4995 68.706 34.4995 69.5344C34.4995 70.3628 35.1711 71.0344 35.9995 71.0344L35.9995 68.0344ZM58.9995 68.0344L35.9995 68.0344L35.9995 71.0344L58.9995 71.0344L58.9995 68.0344Z" fill="#C679D4"/>
    <circle cx="8.58629" cy="39.3732" r="4.5" transform="rotate(-60 8.58629 39.3732)" stroke="#C679D4" stroke-width="3"/>
    <path d="M22.8855 17.6065C23.2997 16.8891 23.0539 15.9717 22.3364 15.5575C21.619 15.1432 20.7016 15.3891 20.2874 16.1065L22.8855 17.6065ZM11.3855 37.5251L22.8855 17.6065L20.2874 16.1065L8.78739 36.0251L11.3855 37.5251Z" fill="#C679D4"/>
    <circle cx="79.4137" cy="38.6963" r="4.5" transform="rotate(120 79.4137 38.6963)" stroke="#C679D4" stroke-width="3"/>
    <path d="M65.1145 60.463C64.7003 61.1804 64.9461 62.0978 65.6636 62.512C66.381 62.9262 67.2984 62.6804 67.7126 61.963L65.1145 60.463ZM76.6145 40.5444L65.1145 60.463L67.7126 61.963L79.2126 42.0444L76.6145 40.5444Z" fill="#C679D4"/>
    <circle cx="26.5863" cy="69.8732" r="4.5" transform="rotate(-120 26.5863 69.8732)" stroke="#C679D4" stroke-width="3"/>
    <path d="M14.8855 46.6065C14.4712 45.8891 13.5539 45.6432 12.8364 46.0575C12.119 46.4717 11.8732 47.3891 12.2874 48.1065L14.8855 46.6065ZM26.3855 66.5251L14.8855 46.6065L12.2874 48.1065L23.7874 68.0251L26.3855 66.5251Z" fill="#C679D4"/>
    <circle cx="61.4137" cy="8.19627" r="4.5" transform="rotate(60 61.4137 8.19627)" stroke="#C679D4" stroke-width="3"/>
    <path d="M73.1145 31.463C73.5287 32.1804 74.4461 32.4262 75.1636 32.012C75.881 31.5978 76.1268 30.6804 75.7126 29.963L73.1145 31.463ZM61.6145 11.5444L73.1145 31.463L75.7126 29.963L64.2126 10.0444L61.6145 11.5444Z" fill="#C679D4"/>
    <path d="M31.625 40.5H38.6565C38.9319 40.5 39.1718 40.6874 39.2386 40.9545L40.9357 47.7428C41.0758 48.3033 41.8494 48.3614 42.0716 47.8281L48.3289 32.8105C48.5329 32.3209 49.2253 32.3174 49.4343 32.805L51.086 36.6591C51.1097 36.7142 51.1639 36.75 51.2239 36.75H58.625" stroke="#232F3E" stroke-width="3"/>
    <circle cx="29" cy="40.125" r="2.625" fill="#232F3E" stroke="#232F3E" stroke-width="1.5"/>
    <circle cx="59" cy="36.375" r="2.625" fill="#232F3E" stroke="#232F3E" stroke-width="1.5"/>
    <path fill-rule="evenodd" clip-rule="evenodd" d="M58.415 41.509C57.2211 48.5988 51.0532 54 43.6239 54C37.5496 54 32.3186 50.3895 29.96 45.1975C29.6246 45.2647 29.2778 45.2999 28.9227 45.2999C28.072 45.2999 27.2686 45.0976 26.5579 44.7385C28.9536 51.8659 35.6891 57 43.6239 57C52.9073 57 60.5493 49.9722 61.5198 40.9466C60.7894 41.3319 59.9572 41.5499 59.074 41.5499C58.8508 41.5499 58.6308 41.536 58.415 41.509ZM59.8021 31.1C56.8761 25.119 50.731 21 43.6239 21C34.7943 21 27.4496 27.3574 25.9175 35.7446C26.7688 35.1492 27.805 34.7999 28.9227 34.7999C29.0216 34.7999 29.1199 34.8027 29.2174 34.8081C31.0312 28.5639 36.7946 24 43.6239 24C49.2264 24 54.1116 27.0716 56.6873 31.6226C57.4033 31.2565 58.2146 31.0499 59.074 31.0499C59.3211 31.0499 59.5642 31.067 59.8021 31.1Z" fill="#232F3E"/>
</svg>

