<?xml version="1.0" encoding="utf-8"?>
<svg width="50" height="50" viewBox="0 0 50 50" fill="none" xmlns="http://www.w3.org/2000/svg">
    <path fill-rule="evenodd" clip-rule="evenodd" d="M25 50C38.8071 50 50 38.8071 50 25C50 11.1929 38.8071 0 25 0C11.1929 0 0 11.1929 0 25C0 38.8071 11.1929 50 25 50ZM16.7755 11.2245C15.1187 11.2245 13.7755 12.5676 13.7755 14.2245V35.2653C13.7755 36.9222 15.1187 38.2653 16.7755 38.2653H33.2245C34.8813 38.2653 36.2245 36.9222 36.2245 35.2653V14.2245C36.2245 12.5676 34.8813 11.2245 33.2245 11.2245H16.7755Z" fill="white"/>
    <rect x="16.3265" y="14.7959" width="12.2449" height="2.55102" rx="1.27551" fill="white"/>
    <rect x="16.3265" y="20.4082" width="17.3469" height="2.55102" rx="1.27551" fill="white"/>
    <rect x="16.3265" y="26.0204" width="17.3469" height="2.55102" rx="1.27551" fill="white"/>
    <rect x="16.3265" y="31.6327" width="14.2857" height="2.55102" rx="1.27551" fill="white"/>
</svg>
