<?xml version="1.0" encoding="utf-8"?>
<svg width="88" height="79" viewBox="0 0 88 79" fill="none" xmlns="http://www.w3.org/2000/svg">
    <circle cx="25.9995" cy="8.53442" r="4.5" stroke="#C679D4" stroke-width="3"/>
    <path d="M51.9995 10.0344C52.8279 10.0344 53.4995 9.36285 53.4995 8.53442C53.4995 7.706 52.8279 7.03442 51.9995 7.03442V10.0344ZM28.9995 10.0344H51.9995V7.03442H28.9995V10.0344Z" fill="#C679D4"/>
    <circle cx="61.9995" cy="69.5344" r="4.5" transform="rotate(-180 61.9995 69.5344)" stroke="#C679D4" stroke-width="3"/>
    <path d="M35.9995 68.0344C35.1711 68.0344 34.4995 68.706 34.4995 69.5344C34.4995 70.3628 35.1711 71.0344 35.9995 71.0344L35.9995 68.0344ZM58.9995 68.0344L35.9995 68.0344L35.9995 71.0344L58.9995 71.0344L58.9995 68.0344Z" fill="#C679D4"/>
    <circle cx="8.58629" cy="39.3732" r="4.5" transform="rotate(-60 8.58629 39.3732)" stroke="#C679D4" stroke-width="3"/>
    <path d="M22.8855 17.6065C23.2997 16.8891 23.0539 15.9717 22.3364 15.5575C21.619 15.1432 20.7016 15.3891 20.2874 16.1065L22.8855 17.6065ZM11.3855 37.5251L22.8855 17.6065L20.2874 16.1065L8.78739 36.0251L11.3855 37.5251Z" fill="#C679D4"/>
    <circle cx="79.4137" cy="38.6963" r="4.5" transform="rotate(120 79.4137 38.6963)" stroke="#C679D4" stroke-width="3"/>
    <path d="M65.1145 60.463C64.7003 61.1804 64.9461 62.0978 65.6636 62.512C66.381 62.9262 67.2984 62.6804 67.7126 61.963L65.1145 60.463ZM76.6145 40.5444L65.1145 60.463L67.7126 61.963L79.2126 42.0444L76.6145 40.5444Z" fill="#C679D4"/>
    <circle cx="26.5863" cy="69.8732" r="4.5" transform="rotate(-120 26.5863 69.8732)" stroke="#C679D4" stroke-width="3"/>
    <path d="M14.8855 46.6065C14.4712 45.8891 13.5539 45.6432 12.8364 46.0575C12.119 46.4717 11.8732 47.3891 12.2874 48.1065L14.8855 46.6065ZM26.3855 66.5251L14.8855 46.6065L12.2874 48.1065L23.7874 68.0251L26.3855 66.5251Z" fill="#C679D4"/>
    <circle cx="61.4137" cy="8.19627" r="4.5" transform="rotate(60 61.4137 8.19627)" stroke="#C679D4" stroke-width="3"/>
    <path d="M73.1145 31.463C73.5287 32.1804 74.4461 32.4262 75.1636 32.012C75.881 31.5978 76.1268 30.6804 75.7126 29.963L73.1145 31.463ZM61.6145 11.5444L73.1145 31.463L75.7126 29.963L64.2126 10.0444L61.6145 11.5444Z" fill="#C679D4"/>
    <circle cx="53.0005" cy="52" r="3" fill="white"/>
    <path d="M33.9112 31.3185C35.0635 31.3185 36.0386 30.6094 36.3932 29.5457H43.7504L50.044 35.7506H52.6146C52.9692 36.8143 53.9442 37.5234 55.0966 37.5234C56.6035 37.5234 57.7558 36.3711 57.7558 34.8642C57.7558 33.3573 56.6035 32.2049 55.0966 32.2049C53.9442 32.2049 52.9692 32.9141 52.6146 33.9778H50.7531L44.4596 27.7728H36.3932C36.0386 26.7091 35.0635 26 33.9112 26C32.4043 26 31.2519 27.1523 31.2519 28.6593C31.2519 30.1662 32.4043 31.3185 33.9112 31.3185ZM58.7309 40.1827C57.224 40.1827 56.0716 41.335 56.0716 42.8419H45.8778L39.3183 50.3765H34.709C34.5317 49.4901 33.9998 48.6923 33.0248 48.3377C31.6951 47.8059 30.0996 48.515 29.5677 49.8446C29.0359 51.1743 29.745 52.7698 31.0747 53.3017C32.3156 53.7449 33.6453 53.3017 34.3544 52.1493H40.0275L46.587 44.6148H56.7808C57.224 45.1466 57.9331 45.5012 58.7309 45.5012C60.2378 45.5012 61.3901 44.3488 61.3901 42.8419C61.3901 41.335 60.1492 40.1827 58.7309 40.1827ZM32.1384 41.7782C33.2907 41.7782 34.2658 41.0691 34.6203 40.0054H38.5206C38.8751 41.0691 39.8502 41.7782 41.0025 41.7782C42.5094 41.7782 43.6618 40.6259 43.6618 39.119C43.6618 37.6121 42.5094 36.4597 41.0025 36.4597C39.8502 36.4597 38.8751 37.1689 38.5206 38.2326H34.6203C34.2658 37.1689 33.2907 36.4597 32.1384 36.4597C30.6314 36.4597 29.4791 37.6121 29.4791 39.119C29.4791 40.6259 30.6314 41.7782 32.1384 41.7782Z" fill="white" stroke="white"/>
</svg>
