<?xml version="1.0" encoding="utf-8"?>
<svg width="88" height="79" viewBox="0 0 88 79" fill="none" xmlns="http://www.w3.org/2000/svg">
    <circle cx="25.999" cy="8.53442" r="4.5" stroke="#C679D4" stroke-width="3"/>
    <path d="M51.999 10.0344C52.8274 10.0344 53.499 9.36285 53.499 8.53442C53.499 7.706 52.8274 7.03442 51.999 7.03442V10.0344ZM28.999 10.0344H51.999V7.03442H28.999V10.0344Z" fill="#C679D4"/>
    <circle cx="61.999" cy="69.5344" r="4.5" transform="rotate(-180 61.999 69.5344)" stroke="#C679D4" stroke-width="3"/>
    <path d="M35.999 68.0344C35.1706 68.0344 34.499 68.706 34.499 69.5344C34.499 70.3628 35.1706 71.0344 35.999 71.0344L35.999 68.0344ZM58.999 68.0344L35.999 68.0344L35.999 71.0344L58.999 71.0344L58.999 68.0344Z" fill="#C679D4"/>
    <circle cx="8.5858" cy="39.3732" r="4.5" transform="rotate(-60 8.5858 39.3732)" stroke="#C679D4" stroke-width="3"/>
    <path d="M22.885 17.6065C23.2992 16.8891 23.0534 15.9717 22.3359 15.5575C21.6185 15.1433 20.7011 15.3891 20.2869 16.1065L22.885 17.6065ZM11.385 37.5251L22.885 17.6065L20.2869 16.1065L8.7869 36.0251L11.385 37.5251Z" fill="#C679D4"/>
    <circle cx="79.4132" cy="38.6963" r="4.5" transform="rotate(120 79.4132 38.6963)" stroke="#C679D4" stroke-width="3"/>
    <path d="M65.114 60.4629C64.6998 61.1804 64.9456 62.0978 65.6631 62.512C66.3805 62.9262 67.2979 62.6804 67.7121 61.9629L65.114 60.4629ZM76.614 40.5443L65.114 60.4629L67.7121 61.9629L79.2121 42.0443L76.614 40.5443Z" fill="#C679D4"/>
    <circle cx="26.5858" cy="69.8732" r="4.5" transform="rotate(-120 26.5858 69.8732)" stroke="#C679D4" stroke-width="3"/>
    <path d="M14.885 46.6065C14.4708 45.8891 13.5534 45.6433 12.8359 46.0575C12.1185 46.4717 11.8727 47.3891 12.2869 48.1065L14.885 46.6065ZM26.385 66.5251L14.885 46.6065L12.2869 48.1065L23.7869 68.0251L26.385 66.5251Z" fill="#C679D4"/>
    <circle cx="61.4132" cy="8.19627" r="4.5" transform="rotate(60 61.4132 8.19627)" stroke="#C679D4" stroke-width="3"/>
    <path d="M73.114 31.4629C73.5283 32.1804 74.4456 32.4262 75.1631 32.012C75.8805 31.5978 76.1263 30.6804 75.7121 29.9629L73.114 31.4629ZM61.614 11.5443L73.114 31.4629L75.7121 29.9629L64.2121 10.0443L61.614 11.5443Z" fill="#C679D4"/>
    <path d="M44.3337 57.6468L27.1568 46.1081L44.3337 35.4805L61.5106 46.1081L44.3337 57.6468Z" stroke="#232F3E" stroke-width="3"/>
    <path d="M44.5349 50.0906L27.358 38.552L44.5349 27.9243L61.7118 38.552L44.5349 50.0906Z" fill="white" stroke="#232F3E" stroke-width="3"/>
    <path d="M44.736 42.5344L27.5591 30.9958L44.736 20.3682L61.9129 30.9958L44.736 42.5344Z" fill="white" stroke="#232F3E" stroke-width="3"/>
</svg>
