<?xml version="1.0" encoding="utf-8"?>
<svg width="88" height="79" viewBox="0 0 88 79" fill="none" xmlns="http://www.w3.org/2000/svg">
    <circle cx="25.9995" cy="8.53442" r="4.5" stroke="#C679D4" stroke-width="3"/>
    <path d="M51.9995 10.0344C52.8279 10.0344 53.4995 9.36285 53.4995 8.53442C53.4995 7.706 52.8279 7.03442 51.9995 7.03442V10.0344ZM28.9995 10.0344H51.9995V7.03442H28.9995V10.0344Z" fill="#C679D4"/>
    <circle cx="61.9995" cy="69.5344" r="4.5" transform="rotate(-180 61.9995 69.5344)" stroke="#C679D4" stroke-width="3"/>
    <path d="M35.9995 68.0344C35.1711 68.0344 34.4995 68.706 34.4995 69.5344C34.4995 70.3628 35.1711 71.0344 35.9995 71.0344L35.9995 68.0344ZM58.9995 68.0344L35.9995 68.0344L35.9995 71.0344L58.9995 71.0344L58.9995 68.0344Z" fill="#C679D4"/>
    <circle cx="8.58629" cy="39.3732" r="4.5" transform="rotate(-60 8.58629 39.3732)" stroke="#C679D4" stroke-width="3"/>
    <path d="M22.8855 17.6065C23.2997 16.8891 23.0539 15.9717 22.3364 15.5575C21.619 15.1433 20.7016 15.3891 20.2874 16.1065L22.8855 17.6065ZM11.3855 37.5251L22.8855 17.6065L20.2874 16.1065L8.78739 36.0251L11.3855 37.5251Z" fill="#C679D4"/>
    <circle cx="79.4137" cy="38.6963" r="4.5" transform="rotate(120 79.4137 38.6963)" stroke="#C679D4" stroke-width="3"/>
    <path d="M65.1145 60.4629C64.7003 61.1804 64.9461 62.0978 65.6636 62.512C66.381 62.9262 67.2984 62.6804 67.7126 61.9629L65.1145 60.4629ZM76.6145 40.5443L65.1145 60.4629L67.7126 61.9629L79.2126 42.0443L76.6145 40.5443Z" fill="#C679D4"/>
    <circle cx="26.5863" cy="69.8732" r="4.5" transform="rotate(-120 26.5863 69.8732)" stroke="#C679D4" stroke-width="3"/>
    <path d="M14.8855 46.6065C14.4712 45.8891 13.5539 45.6433 12.8364 46.0575C12.119 46.4717 11.8732 47.3891 12.2874 48.1065L14.8855 46.6065ZM26.3855 66.5251L14.8855 46.6065L12.2874 48.1065L23.7874 68.0251L26.3855 66.5251Z" fill="#C679D4"/>
    <circle cx="61.4137" cy="8.19627" r="4.5" transform="rotate(60 61.4137 8.19627)" stroke="#C679D4" stroke-width="3"/>
    <path d="M73.1145 31.4629C73.5287 32.1804 74.4461 32.4262 75.1636 32.012C75.881 31.5978 76.1268 30.6804 75.7126 29.9629L73.1145 31.4629ZM61.6145 11.5443L73.1145 31.4629L75.7126 29.9629L64.2126 10.0443L61.6145 11.5443Z" fill="#C679D4"/>
    <path d="M44.3342 57.6468L27.1573 46.1081L44.3342 35.4805L61.5111 46.1081L44.3342 57.6468Z" stroke="white" stroke-width="3"/>
    <path d="M44.5353 50.0906L27.3585 38.552L44.5353 27.9243L61.7122 38.552L44.5353 50.0906Z" fill="#232F3E" stroke="white" stroke-width="3"/>
    <path d="M44.7365 42.5344L27.5596 30.9958L44.7365 20.3682L61.9134 30.9958L44.7365 42.5344Z" fill="#232F3E" stroke="white" stroke-width="3"/>
</svg>