<?xml version="1.0" encoding="utf-8"?>
<svg width="390" height="456" viewBox="0 0 390 456" fill="none" xmlns="http://www.w3.org/2000/svg" preserveAspectRatio="none">
    <path d="M0 0H390V445.777L292.635 447.805L203.655 428.062L159.029 407.913L109.13 398.311L51.5222 407.101L5.80035e-06 435.094L0 0Z" fill="#7573D1"/>
    <path d="M390 396.553V443.748H251.255L123.464 398.311L55.8495 407.913L0.000105235 438.069L0 393.443C0 393.443 41.8904 353.01 117.92 353.01C150.965 353.01 214.841 393.622 267.483 399.799C335.958 407.834 390 396.553 390 396.553Z" fill="#C679D4" fill-opacity="0.24"/>
    <path d="M390 416.838V442.396L258.693 442.129L117.243 399.123L54.7677 409.806L0.000105235 438.069L0 413.727C0 413.727 41.8904 373.294 117.92 373.294C150.965 373.294 214.841 413.906 267.483 420.083C335.958 428.118 390 416.838 390 416.838Z" fill="#C679D4" fill-opacity="0.54"/>
    <path d="M390 436.311V449.022C390 449.022 351.73 456.189 305.482 454.837C267.421 453.724 250.173 451.727 210.01 436.311C175.426 423.036 141.585 403.45 109.941 405.479C42.1914 406.831 0.000105235 445.912 0.000105235 445.912L0 433.2C0 433.2 41.8904 392.767 117.92 392.767C150.965 392.767 214.841 433.379 267.483 439.556C335.958 447.591 390 436.311 390 436.311Z" fill="#C679D4"/>
</svg>
