<?xml version="1.0" encoding="utf-8"?>
<svg width="88" height="79" viewBox="0 0 88 79" fill="none" xmlns="http://www.w3.org/2000/svg">
    <circle cx="25.9995" cy="8.5343" r="4.5" stroke="#C679D4" stroke-width="3"/>
    <path d="M51.9995 10.0343C52.8279 10.0343 53.4995 9.36273 53.4995 8.5343C53.4995 7.70587 52.8279 7.0343 51.9995 7.0343V10.0343ZM28.9995 10.0343H51.9995V7.0343H28.9995V10.0343Z" fill="#C679D4"/>
    <circle cx="61.9995" cy="69.5343" r="4.5" transform="rotate(-180 61.9995 69.5343)" stroke="#C679D4" stroke-width="3"/>
    <path d="M35.9995 68.0343C35.1711 68.0343 34.4995 68.7059 34.4995 69.5343C34.4995 70.3627 35.1711 71.0343 35.9995 71.0343L35.9995 68.0343ZM58.9995 68.0343L35.9995 68.0343L35.9995 71.0343L58.9995 71.0343L58.9995 68.0343Z" fill="#C679D4"/>
    <circle cx="8.58629" cy="39.3731" r="4.5" transform="rotate(-60 8.58629 39.3731)" stroke="#C679D4" stroke-width="3"/>
    <path d="M22.8855 17.6064C23.2997 16.8889 23.0539 15.9716 22.3364 15.5573C21.619 15.1431 20.7016 15.3889 20.2874 16.1064L22.8855 17.6064ZM11.3855 37.525L22.8855 17.6064L20.2874 16.1064L8.78739 36.025L11.3855 37.525Z" fill="#C679D4"/>
    <circle cx="79.4137" cy="38.6962" r="4.5" transform="rotate(120 79.4137 38.6962)" stroke="#C679D4" stroke-width="3"/>
    <path d="M65.1145 60.4628C64.7003 61.1803 64.9461 62.0977 65.6636 62.5119C66.381 62.9261 67.2984 62.6803 67.7126 61.9628L65.1145 60.4628ZM76.6145 40.5443L65.1145 60.4628L67.7126 61.9628L79.2126 42.0443L76.6145 40.5443Z" fill="#C679D4"/>
    <circle cx="26.5863" cy="69.8731" r="4.5" transform="rotate(-120 26.5863 69.8731)" stroke="#C679D4" stroke-width="3"/>
    <path d="M14.8855 46.6064C14.4712 45.8889 13.5539 45.6431 12.8364 46.0573C12.119 46.4716 11.8732 47.3889 12.2874 48.1064L14.8855 46.6064ZM26.3855 66.525L14.8855 46.6064L12.2874 48.1064L23.7874 68.025L26.3855 66.525Z" fill="#C679D4"/>
    <circle cx="61.4137" cy="8.19615" r="4.5" transform="rotate(60 61.4137 8.19615)" stroke="#C679D4" stroke-width="3"/>
    <path d="M73.1145 31.4628C73.5287 32.1803 74.4461 32.4261 75.1636 32.0119C75.881 31.5977 76.1268 30.6803 75.7126 29.9628L73.1145 31.4628ZM61.6145 11.5443L73.1145 31.4628L75.7126 29.9628L64.2126 10.0443L61.6145 11.5443Z" fill="#C679D4"/>
    <path d="M55.1969 48.3779C55.1969 48.6524 55.0517 49.0156 54.5651 49.447C54.0795 49.8775 53.3283 50.3041 52.3272 50.6795C50.3311 51.428 47.5165 51.9084 44.3658 51.9084C41.215 51.9084 38.4004 51.428 36.4044 50.6795C35.4032 50.3041 34.652 49.8775 34.1664 49.447C33.6798 49.0156 33.5346 48.6524 33.5346 48.3779C33.5346 48.1035 33.6798 47.7403 34.1664 47.3089C34.652 46.8784 35.4032 46.4518 36.4044 46.0764C38.4004 45.3279 41.215 44.8475 44.3658 44.8475C47.5165 44.8475 50.3311 45.3279 52.3272 46.0764C53.3283 46.4518 54.0795 46.8784 54.5651 47.3089C55.0517 47.7403 55.1969 48.1035 55.1969 48.3779Z" fill="#17202C" stroke="white" stroke-width="1.7"/>
    <rect x="33.5346" y="30.976" width="21.6624" height="16.9169" fill="#17202C" stroke="white" stroke-width="1.7"/>
    <path d="M55.1969 30.1261C55.1969 30.4005 55.0517 30.7637 54.5651 31.1951C54.0795 31.6256 53.3283 32.0522 52.3272 32.4276C50.3311 33.1761 47.5165 33.6565 44.3658 33.6565C41.215 33.6565 38.4004 33.1761 36.4044 32.4276C35.4032 32.0522 34.652 31.6256 34.1664 31.1951C33.6798 30.7637 33.5346 30.4005 33.5346 30.1261C33.5346 29.8516 33.6798 29.4884 34.1664 29.057C34.652 28.6265 35.4032 28.1999 36.4044 27.8245C38.4004 27.076 41.215 26.5956 44.3658 26.5956C47.5165 26.5956 50.3311 27.076 52.3272 27.8245C53.3283 28.1999 54.0795 28.6265 54.5651 29.057C55.0517 29.4884 55.1969 29.8516 55.1969 30.1261Z" fill="#17202C" stroke="white" stroke-width="1.7"/>
    <mask id="path-16-inside-1_566_20040" fill="white">
        <path d="M56.0469 35.9667C56.0469 36.542 55.7448 37.1116 55.1578 37.6431C54.5707 38.1745 53.7103 38.6574 52.6256 39.0642C51.5409 39.4709 50.2532 39.7936 48.836 40.0137C47.4187 40.2339 45.8998 40.3472 44.3658 40.3472C42.8318 40.3472 41.3128 40.2339 39.8956 40.0137C38.4783 39.7936 37.1906 39.4709 36.1059 39.0642C35.0212 38.6574 34.1608 38.1745 33.5737 37.6431C32.9867 37.1116 32.6846 36.542 32.6846 35.9667H34.1302C34.1302 36.4708 34.5429 36.5962 35.0573 37.0618C35.6049 37.4269 36.1776 37.5944 37.1281 37.9508C38.0786 38.3072 39.2069 38.5899 40.4488 38.7828C41.6906 38.9757 43.0216 39.075 44.3658 39.075C45.7099 39.075 47.0409 38.9757 48.2828 38.7828C49.5246 38.5899 50.653 38.3072 51.6034 37.9508C52.5539 37.5944 53.3078 37.1712 53.8222 36.7055C54.3366 36.2398 54.6014 36.4708 54.6014 35.9667H56.0469Z"/>
    </mask>
    <path d="M56.0469 35.9667C56.0469 36.542 55.7448 37.1116 55.1578 37.6431C54.5707 38.1745 53.7103 38.6574 52.6256 39.0642C51.5409 39.4709 50.2532 39.7936 48.836 40.0137C47.4187 40.2339 45.8998 40.3472 44.3658 40.3472C42.8318 40.3472 41.3128 40.2339 39.8956 40.0137C38.4783 39.7936 37.1906 39.4709 36.1059 39.0642C35.0212 38.6574 34.1608 38.1745 33.5737 37.6431C32.9867 37.1116 32.6846 36.542 32.6846 35.9667H34.1302C34.1302 36.4708 34.5429 36.5962 35.0573 37.0618C35.6049 37.4269 36.1776 37.5944 37.1281 37.9508C38.0786 38.3072 39.2069 38.5899 40.4488 38.7828C41.6906 38.9757 43.0216 39.075 44.3658 39.075C45.7099 39.075 47.0409 38.9757 48.2828 38.7828C49.5246 38.5899 50.653 38.3072 51.6034 37.9508C52.5539 37.5944 53.3078 37.1712 53.8222 36.7055C54.3366 36.2398 54.6014 36.4708 54.6014 35.9667H56.0469Z" fill="#D9D9D9"/>
    <path d="M56.0469 35.9667H57.7469V34.2667H56.0469V35.9667ZM32.6846 35.9667V34.2667H30.9846L30.9846 35.9667L32.6846 35.9667ZM34.1302 35.9667L35.8302 35.9667L35.8302 34.2667H34.1302V35.9667ZM35.0573 37.0618L33.9164 38.3221L34.0096 38.4065L34.1143 38.4763L35.0573 37.0618ZM44.3658 39.075V37.375V39.075ZM54.6014 35.9667V34.2667H52.9014V35.9667H54.6014ZM54.3469 35.9667C54.3469 35.9017 54.387 36.0477 54.0168 36.3828L56.2987 38.9033C57.1026 38.1755 57.7469 37.1823 57.7469 35.9667H54.3469ZM54.0168 36.3828C53.6442 36.7202 52.9975 37.1091 52.0287 37.4724L53.2225 40.6559C54.4231 40.2057 55.4973 39.6289 56.2987 38.9033L54.0168 36.3828ZM52.0287 37.4724C51.0747 37.8301 49.9034 38.1275 48.575 38.3339L49.0969 41.6936C50.6029 41.4597 52.0071 41.1117 53.2225 40.6559L52.0287 37.4724ZM48.575 38.3339C47.2499 38.5397 45.8184 38.6472 44.3658 38.6472V42.0472C45.9811 42.0472 47.5876 41.928 49.0969 41.6936L48.575 38.3339ZM44.3658 38.6472C42.9131 38.6472 41.4817 38.5397 40.1565 38.3339L39.6346 41.6936C41.1439 41.928 42.7504 42.0472 44.3658 42.0472V38.6472ZM40.1565 38.3339C38.8281 38.1275 37.6568 37.8301 36.7028 37.4724L35.509 40.6559C36.7245 41.1117 38.1286 41.4597 39.6346 41.6936L40.1565 38.3339ZM36.7028 37.4724C35.734 37.1091 35.0874 36.7202 34.7147 36.3828L32.4328 38.9033C33.2342 39.6289 34.3084 40.2057 35.509 40.6559L36.7028 37.4724ZM34.7147 36.3828C34.3445 36.0477 34.3846 35.9017 34.3846 35.9667L30.9846 35.9667C30.9846 37.1823 31.6289 38.1755 32.4328 38.9033L34.7147 36.3828ZM32.6846 37.6667H34.1302V34.2667H32.6846V37.6667ZM32.4302 35.9667C32.4302 36.3418 32.5111 36.7166 32.6943 37.069C32.8676 37.4024 33.0911 37.6352 33.2561 37.7855C33.4067 37.9227 33.5786 38.051 33.6612 38.1143C33.7661 38.1947 33.8421 38.2549 33.9164 38.3221L36.1983 35.8016C36.0153 35.636 35.8469 35.5058 35.7297 35.416C35.6655 35.3668 35.6282 35.3385 35.5917 35.3096C35.5755 35.2969 35.5642 35.2876 35.5562 35.2809C35.5482 35.2742 35.5451 35.2714 35.5456 35.2719C35.5457 35.272 35.5671 35.2913 35.5975 35.328C35.6292 35.3663 35.6711 35.424 35.7111 35.501C35.7519 35.5795 35.7837 35.6646 35.8043 35.7524C35.8245 35.8389 35.8302 35.9126 35.8302 35.9667L32.4302 35.9667ZM34.1143 38.4763C34.8752 38.9836 35.7384 39.2452 36.5312 39.5425L37.725 36.359C36.6169 35.9435 36.3345 35.8702 36.0003 35.6474L34.1143 38.4763ZM36.5312 39.5425C37.6124 39.948 38.8572 40.256 40.1878 40.4627L40.7097 37.103C39.5567 36.9239 38.5447 36.6664 37.725 36.359L36.5312 39.5425ZM40.1878 40.4627C41.5217 40.6699 42.9402 40.775 44.3658 40.775V37.375C43.103 37.375 41.8595 37.2816 40.7097 37.103L40.1878 40.4627ZM44.3658 40.775C45.7913 40.775 47.2098 40.6699 48.5437 40.4627L48.0218 37.103C46.872 37.2816 45.6285 37.375 44.3658 37.375V40.775ZM48.5437 40.4627C49.8743 40.256 51.1191 39.948 52.2003 39.5425L51.0065 36.359C50.1868 36.6664 49.1749 36.9239 48.0218 37.103L48.5437 40.4627ZM52.2003 39.5425C53.2667 39.1426 54.2344 38.6256 54.9632 37.9658L52.6813 35.4453C52.3813 35.7169 51.8411 36.0461 51.0065 36.359L52.2003 39.5425ZM54.9632 37.9658C54.989 37.9424 54.8664 38.0164 55.1484 37.8792C55.316 37.7977 55.7336 37.5791 56.0216 37.0839C56.2799 36.6396 56.3014 36.1979 56.3014 35.9667H52.9014C52.9014 35.9618 52.9011 35.8989 52.9196 35.8028C52.9393 35.7006 52.983 35.5456 53.0823 35.3748C53.1861 35.1964 53.3159 35.0599 53.4411 34.9618C53.5524 34.8744 53.6452 34.8295 53.661 34.8218C53.6712 34.8168 53.675 34.8153 53.6627 34.8208C53.6569 34.8234 53.6506 34.8262 53.64 34.8308C53.6305 34.835 53.6177 34.8406 53.6041 34.8467C53.5478 34.8717 53.4619 34.9108 53.3622 34.9638C53.1522 35.0757 52.9222 35.2272 52.6813 35.4453L54.9632 37.9658ZM54.6014 37.6667H56.0469V34.2667H54.6014V37.6667Z" fill="white" mask="url(#path-16-inside-1_566_20040)"/>
    <mask id="path-18-inside-2_566_20040" fill="white">
        <path d="M56.0469 42.5373C56.0469 43.1125 55.7448 43.6822 55.1578 44.2136C54.5707 44.7451 53.7103 45.228 52.6256 45.6347C51.5409 46.0415 50.2532 46.3642 48.836 46.5843C47.4187 46.8044 45.8998 46.9177 44.3658 46.9177C42.8318 46.9177 41.3128 46.8044 39.8956 46.5843C38.4783 46.3642 37.1906 46.0415 36.1059 45.6347C35.0212 45.228 34.1608 44.7451 33.5737 44.2136C32.9867 43.6822 32.6846 43.1125 32.6846 42.5373H34.1302C34.1302 43.0414 34.5429 43.1667 35.0573 43.6324C35.6049 43.9974 36.1776 44.1649 37.1281 44.5213C38.0786 44.8778 39.2069 45.1605 40.4488 45.3534C41.6906 45.5463 43.0216 45.6456 44.3658 45.6456C45.7099 45.6456 47.0409 45.5463 48.2828 45.3534C49.5246 45.1605 50.653 44.8778 51.6034 44.5213C52.5539 44.1649 53.3078 43.7418 53.8222 43.2761C54.3366 42.8104 54.6014 43.0414 54.6014 42.5373H56.0469Z"/>
    </mask>
    <path d="M56.0469 42.5373C56.0469 43.1125 55.7448 43.6822 55.1578 44.2136C54.5707 44.7451 53.7103 45.228 52.6256 45.6347C51.5409 46.0415 50.2532 46.3642 48.836 46.5843C47.4187 46.8044 45.8998 46.9177 44.3658 46.9177C42.8318 46.9177 41.3128 46.8044 39.8956 46.5843C38.4783 46.3642 37.1906 46.0415 36.1059 45.6347C35.0212 45.228 34.1608 44.7451 33.5737 44.2136C32.9867 43.6822 32.6846 43.1125 32.6846 42.5373H34.1302C34.1302 43.0414 34.5429 43.1667 35.0573 43.6324C35.6049 43.9974 36.1776 44.1649 37.1281 44.5213C38.0786 44.8778 39.2069 45.1605 40.4488 45.3534C41.6906 45.5463 43.0216 45.6456 44.3658 45.6456C45.7099 45.6456 47.0409 45.5463 48.2828 45.3534C49.5246 45.1605 50.653 44.8778 51.6034 44.5213C52.5539 44.1649 53.3078 43.7418 53.8222 43.2761C54.3366 42.8104 54.6014 43.0414 54.6014 42.5373H56.0469Z" fill="#D9D9D9"/>
    <path d="M56.0469 42.5373H57.7469V40.8373H56.0469V42.5373ZM32.6846 42.5373V40.8373H30.9846L30.9846 42.5373L32.6846 42.5373ZM34.1302 42.5373L35.8302 42.5373L35.8302 40.8373H34.1302V42.5373ZM35.0573 43.6324L33.9164 44.8927L34.0096 44.9771L34.1143 45.0469L35.0573 43.6324ZM44.3658 45.6456V43.9456V45.6456ZM54.6014 42.5373V40.8373H52.9014V42.5373H54.6014ZM54.3469 42.5373C54.3469 42.4722 54.387 42.6183 54.0168 42.9534L56.2987 45.4739C57.1026 44.7461 57.7469 43.7528 57.7469 42.5373H54.3469ZM54.0168 42.9534C53.6442 43.2907 52.9975 43.6797 52.0287 44.043L53.2225 47.2265C54.4231 46.7763 55.4973 46.1994 56.2987 45.4739L54.0168 42.9534ZM52.0287 44.043C51.0747 44.4007 49.9034 44.6981 48.575 44.9044L49.0969 48.2642C50.6029 48.0302 52.0071 47.6823 53.2225 47.2265L52.0287 44.043ZM48.575 44.9044C47.2499 45.1103 45.8184 45.2177 44.3658 45.2177V48.6177C45.9811 48.6177 47.5876 48.4986 49.0969 48.2642L48.575 44.9044ZM44.3658 45.2177C42.9131 45.2177 41.4817 45.1103 40.1565 44.9044L39.6346 48.2642C41.1439 48.4986 42.7504 48.6177 44.3658 48.6177V45.2177ZM40.1565 44.9044C38.8281 44.6981 37.6568 44.4007 36.7028 44.043L35.509 47.2265C36.7245 47.6823 38.1286 48.0302 39.6346 48.2642L40.1565 44.9044ZM36.7028 44.043C35.734 43.6797 35.0874 43.2907 34.7147 42.9534L32.4328 45.4739C33.2342 46.1994 34.3084 46.7763 35.509 47.2265L36.7028 44.043ZM34.7147 42.9534C34.3445 42.6183 34.3846 42.4722 34.3846 42.5373L30.9846 42.5373C30.9846 43.7528 31.6289 44.7461 32.4328 45.4739L34.7147 42.9534ZM32.6846 44.2373H34.1302V40.8373H32.6846V44.2373ZM32.4302 42.5373C32.4302 42.9124 32.5111 43.2872 32.6943 43.6396C32.8676 43.973 33.0911 44.2058 33.2561 44.356C33.4067 44.4932 33.5786 44.6216 33.6612 44.6849C33.7661 44.7653 33.8421 44.8254 33.9164 44.8927L36.1983 42.3721C36.0153 42.2065 35.8469 42.0764 35.7297 41.9865C35.6655 41.9373 35.6282 41.909 35.5917 41.8801C35.5755 41.8674 35.5642 41.8582 35.5562 41.8515C35.5482 41.8448 35.5451 41.842 35.5456 41.8424C35.5457 41.8425 35.5671 41.8619 35.5975 41.8985C35.6292 41.9369 35.6711 41.9946 35.7111 42.0715C35.7519 42.15 35.7837 42.2352 35.8043 42.323C35.8245 42.4095 35.8302 42.4832 35.8302 42.5373L32.4302 42.5373ZM34.1143 45.0469C34.8752 45.5541 35.7384 45.8158 36.5312 46.1131L37.725 42.9296C36.6169 42.514 36.3345 42.4407 36.0003 42.2179L34.1143 45.0469ZM36.5312 46.1131C37.6124 46.5186 38.8572 46.8266 40.1878 47.0332L40.7097 43.6735C39.5567 43.4944 38.5447 43.237 37.725 42.9296L36.5312 46.1131ZM40.1878 47.0332C41.5217 47.2404 42.9402 47.3456 44.3658 47.3456V43.9456C43.103 43.9456 41.8595 43.8521 40.7097 43.6735L40.1878 47.0332ZM44.3658 47.3456C45.7913 47.3456 47.2098 47.2404 48.5437 47.0332L48.0218 43.6735C46.872 43.8521 45.6285 43.9456 44.3658 43.9456V47.3456ZM48.5437 47.0332C49.8743 46.8266 51.1191 46.5186 52.2003 46.1131L51.0065 42.9296C50.1868 43.237 49.1749 43.4944 48.0218 43.6735L48.5437 47.0332ZM52.2003 46.1131C53.2667 45.7132 54.2344 45.1961 54.9632 44.5363L52.6813 42.0158C52.3813 42.2875 51.8411 42.6166 51.0065 42.9296L52.2003 46.1131ZM54.9632 44.5363C54.989 44.513 54.8664 44.587 55.1484 44.4498C55.316 44.3682 55.7336 44.1496 56.0216 43.6544C56.2799 43.2101 56.3014 42.7685 56.3014 42.5373H52.9014C52.9014 42.5324 52.9011 42.4695 52.9196 42.3734C52.9393 42.2712 52.983 42.1162 53.0823 41.9454C53.1861 41.767 53.3159 41.6305 53.4411 41.5323C53.5524 41.445 53.6452 41.4001 53.661 41.3924C53.6712 41.3874 53.675 41.3859 53.6627 41.3913C53.6569 41.3939 53.6506 41.3967 53.64 41.4014C53.6305 41.4055 53.6177 41.4112 53.6041 41.4172C53.5478 41.4422 53.4619 41.4814 53.3622 41.5344C53.1522 41.6462 52.9222 41.7977 52.6813 42.0158L54.9632 44.5363ZM54.6014 44.2373H56.0469V40.8373H54.6014V44.2373Z" fill="white" mask="url(#path-18-inside-2_566_20040)"/>
    <path d="M34.6799 48.7647C34.5014 48.3235 34.3816 47.6618 34.3818 47H54.3341C54.3341 47.8824 54.301 48.5 54.001 48.8C47.5724 48.9471 34.8607 49.2111 34.6799 48.7647Z" fill="#17202C"/>
    <path d="M56.0465 21L48.5465 16.6699L48.5465 25.3301L56.0465 21ZM32.6841 21.75L49.2965 21.75L49.2965 20.25L32.6841 20.25L32.6841 21.75Z" fill="white"/>
    <path d="M31.9536 57.1387L39.4536 61.4688V52.8085L31.9536 57.1387ZM54.5859 56.3887H38.7036V57.8887H54.5859V56.3887Z" fill="white"/>
</svg>
