<?xml version="1.0" encoding="utf-8"?>
<svg width="88" height="79" viewBox="0 0 88 79" fill="none" xmlns="http://www.w3.org/2000/svg">
    <circle cx="25.999" cy="8.53442" r="4.5" stroke="#C679D4" stroke-width="3"/>
    <path d="M51.999 10.0344C52.8274 10.0344 53.499 9.36285 53.499 8.53442C53.499 7.706 52.8274 7.03442 51.999 7.03442V10.0344ZM28.999 10.0344H51.999V7.03442H28.999V10.0344Z" fill="#C679D4"/>
    <circle cx="61.999" cy="69.5344" r="4.5" transform="rotate(-180 61.999 69.5344)" stroke="#C679D4" stroke-width="3"/>
    <path d="M35.999 68.0344C35.1706 68.0344 34.499 68.706 34.499 69.5344C34.499 70.3628 35.1706 71.0344 35.999 71.0344L35.999 68.0344ZM58.999 68.0344L35.999 68.0344L35.999 71.0344L58.999 71.0344L58.999 68.0344Z" fill="#C679D4"/>
    <circle cx="8.5858" cy="39.3732" r="4.5" transform="rotate(-60 8.5858 39.3732)" stroke="#C679D4" stroke-width="3"/>
    <path d="M22.885 17.6065C23.2992 16.8891 23.0534 15.9717 22.3359 15.5575C21.6185 15.1432 20.7011 15.3891 20.2869 16.1065L22.885 17.6065ZM11.385 37.5251L22.885 17.6065L20.2869 16.1065L8.7869 36.0251L11.385 37.5251Z" fill="#C679D4"/>
    <circle cx="79.4132" cy="38.6963" r="4.5" transform="rotate(120 79.4132 38.6963)" stroke="#C679D4" stroke-width="3"/>
    <path d="M65.114 60.463C64.6998 61.1804 64.9456 62.0978 65.6631 62.512C66.3805 62.9262 67.2979 62.6804 67.7121 61.963L65.114 60.463ZM76.614 40.5444L65.114 60.463L67.7121 61.963L79.2121 42.0444L76.614 40.5444Z" fill="#C679D4"/>
    <circle cx="26.5858" cy="69.8732" r="4.5" transform="rotate(-120 26.5858 69.8732)" stroke="#C679D4" stroke-width="3"/>
    <path d="M14.885 46.6065C14.4708 45.8891 13.5534 45.6432 12.8359 46.0575C12.1185 46.4717 11.8727 47.3891 12.2869 48.1065L14.885 46.6065ZM26.385 66.5251L14.885 46.6065L12.2869 48.1065L23.7869 68.0251L26.385 66.5251Z" fill="#C679D4"/>
    <circle cx="61.4132" cy="8.19627" r="4.5" transform="rotate(60 61.4132 8.19627)" stroke="#C679D4" stroke-width="3"/>
    <path d="M73.114 31.463C73.5283 32.1804 74.4456 32.4262 75.1631 32.012C75.8805 31.5978 76.1263 30.6804 75.7121 29.963L73.114 31.463ZM61.614 11.5444L73.114 31.463L75.7121 29.963L64.2121 10.0444L61.614 11.5444Z" fill="#C679D4"/>
    <circle cx="53" cy="52" r="3" fill="#232F3E"/>
    <path d="M33.9107 31.3185C35.063 31.3185 36.0381 30.6094 36.3927 29.5457H43.7499L50.0435 35.7506H52.6141C52.9687 36.8143 53.9437 37.5234 55.0961 37.5234C56.603 37.5234 57.7553 36.3711 57.7553 34.8642C57.7553 33.3573 56.603 32.2049 55.0961 32.2049C53.9437 32.2049 52.9687 32.9141 52.6141 33.9778H50.7526L44.4591 27.7728H36.3927C36.0381 26.7091 35.063 26 33.9107 26C32.4038 26 31.2515 27.1523 31.2515 28.6593C31.2515 30.1662 32.4038 31.3185 33.9107 31.3185ZM58.7304 40.1827C57.2235 40.1827 56.0711 41.335 56.0711 42.8419H45.8773L39.3179 50.3765H34.7085C34.5312 49.4901 33.9993 48.6923 33.0243 48.3377C31.6947 47.8059 30.0991 48.515 29.5673 49.8446C29.0354 51.1743 29.7445 52.7698 31.0742 53.3017C32.3152 53.7449 33.6448 53.3017 34.3539 52.1493H40.027L46.5865 44.6148H56.7803C57.2235 45.1466 57.9326 45.5012 58.7304 45.5012C60.2373 45.5012 61.3896 44.3488 61.3896 42.8419C61.3896 41.335 60.1487 40.1827 58.7304 40.1827ZM32.1379 41.7782C33.2902 41.7782 34.2653 41.0691 34.6198 40.0054H38.5201C38.8746 41.0691 39.8497 41.7782 41.002 41.7782C42.509 41.7782 43.6613 40.6259 43.6613 39.119C43.6613 37.6121 42.509 36.4597 41.002 36.4597C39.8497 36.4597 38.8746 37.1689 38.5201 38.2326H34.6198C34.2653 37.1689 33.2902 36.4597 32.1379 36.4597C30.631 36.4597 29.4786 37.6121 29.4786 39.119C29.4786 40.6259 30.631 41.7782 32.1379 41.7782Z" fill="#232F3E" stroke="#232F3E"/>
</svg>
