<?xml version="1.0" encoding="utf-8"?>
<svg width="89" height="79" viewBox="0 0 89 79" fill="none" xmlns="http://www.w3.org/2000/svg">
    <circle cx="26.4995" cy="8.60364" r="4.5" stroke="#C679D4" stroke-width="3"/>
    <path d="M52.4995 10.1036C53.3279 10.1036 53.9995 9.43206 53.9995 8.60364C53.9995 7.77521 53.3279 7.10364 52.4995 7.10364V10.1036ZM29.4995 10.1036H52.4995V7.10364H29.4995V10.1036Z" fill="#C679D4"/>
    <circle cx="62.4995" cy="69.6036" r="4.5" transform="rotate(-180 62.4995 69.6036)" stroke="#C679D4" stroke-width="3"/>
    <path d="M36.4995 68.1036C35.6711 68.1036 34.9995 68.7752 34.9995 69.6036C34.9995 70.4321 35.6711 71.1036 36.4995 71.1036L36.4995 68.1036ZM59.4995 68.1036L36.4995 68.1036L36.4995 71.1036L59.4995 71.1036L59.4995 68.1036Z" fill="#C679D4"/>
    <circle cx="9.08629" cy="39.4424" r="4.5" transform="rotate(-60 9.08629 39.4424)" stroke="#C679D4" stroke-width="3"/>
    <path d="M23.3855 17.6757C23.7997 16.9583 23.5539 16.0409 22.8364 15.6267C22.119 15.2125 21.2016 15.4583 20.7874 16.1757L23.3855 17.6757ZM11.8855 37.5943L23.3855 17.6757L20.7874 16.1757L9.28739 36.0943L11.8855 37.5943Z" fill="#C679D4"/>
    <circle cx="79.9137" cy="38.7655" r="4.5" transform="rotate(120 79.9137 38.7655)" stroke="#C679D4" stroke-width="3"/>
    <path d="M65.6145 60.5321C65.2003 61.2496 65.4461 62.167 66.1636 62.5812C66.881 62.9954 67.7984 62.7496 68.2126 62.0321L65.6145 60.5321ZM77.1145 40.6136L65.6145 60.5321L68.2126 62.0321L79.7126 42.1136L77.1145 40.6136Z" fill="#C679D4"/>
    <circle cx="27.0863" cy="69.9424" r="4.5" transform="rotate(-120 27.0863 69.9424)" stroke="#C679D4" stroke-width="3"/>
    <path d="M15.3855 46.6757C14.9712 45.9583 14.0539 45.7125 13.3364 46.1267C12.619 46.5409 12.3732 47.4583 12.7874 48.1757L15.3855 46.6757ZM26.8855 66.5943L15.3855 46.6757L12.7874 48.1757L24.2874 68.0943L26.8855 66.5943Z" fill="#C679D4"/>
    <circle cx="61.9137" cy="8.26548" r="4.5" transform="rotate(60 61.9137 8.26548)" stroke="#C679D4" stroke-width="3"/>
    <path d="M73.6145 31.5321C74.0287 32.2496 74.9461 32.4954 75.6636 32.0812C76.381 31.667 76.6268 30.7496 76.2126 30.0321L73.6145 31.5321ZM62.1145 11.6136L73.6145 31.5321L76.2126 30.0321L64.7126 10.1136L62.1145 11.6136Z" fill="#C679D4"/>
    <path d="M61.8901 24.0692L50.7366 27.0578L58.9016 35.2228L61.8901 24.0692ZM49.5972 37.7763L56.2333 31.1403L54.8191 29.7261L48.183 36.3621L49.5972 37.7763Z" fill="#232F3E"/>
    <path d="M28.8901 57.0692L40.0437 54.0806L31.8787 45.9157L28.8901 57.0692ZM41.183 43.3621L34.547 49.9981L35.9612 51.4124L42.5972 44.7763L41.183 43.3621Z" fill="#232F3E"/>
    <path d="M28.8901 24.0692L31.8787 35.2228L40.0437 27.0578L28.8901 24.0692ZM42.5972 36.3621L35.9612 29.7261L34.547 31.1403L41.183 37.7763L42.5972 36.3621Z" fill="#232F3E"/>
    <path d="M61.8901 57.0692L58.9016 45.9157L50.7366 54.0806L61.8901 57.0692ZM48.183 44.7763L54.8191 51.4124L56.2333 49.9981L49.5972 43.3621L48.183 44.7763Z" fill="#232F3E"/>
</svg>
